<svg id="Layer_1" data-name="Layer 1" xmlns="http://www.w3.org/2000/svg" width="200" height="100" viewBox="0 0 200 100"><title>Aircel_Logo</title><path id="path5" d="M5,30.72H140.8c0,2.09,0,4.18,0,6.27q0,15.92,0,31.82a2.64,2.64,0,0,1,0,.29H5V30.72m77,9.89a8.14,8.14,0,0,0-2.65,1.06,8.23,8.23,0,0,0-2.66,3.13,26.76,26.76,0,0,0-1.83,5.32,23.24,23.24,0,0,0-.9,5.48,3,3,0,0,0,.62,2.09,4.59,4.59,0,0,0,2.31,1.22,22.61,22.61,0,0,0,5,.51,38.57,38.57,0,0,0,5.88-.32,8.71,8.71,0,0,0,3.1-1,6,6,0,0,0,2-2,16.11,16.11,0,0,0,1.72-4.46c-1.86,0-3.73,0-5.59,0a7.55,7.55,0,0,1-1,2.57,2.27,2.27,0,0,1-1.52.83,19.41,19.41,0,0,1-3.14.2,11.91,11.91,0,0,1-3.21-.31c-.21-.06-.54-.15-.49-.43A13.75,13.75,0,0,1,80.2,51a24.8,24.8,0,0,1,2.12-5.75,2,2,0,0,1,1.35-.78A20.48,20.48,0,0,1,87,44.17a18.69,18.69,0,0,1,3,.19c.22,0,.52.08.61.33a8.75,8.75,0,0,1-.54,2.66h5.59a14.73,14.73,0,0,0,.71-3.54A3,3,0,0,0,94,40.52,16.42,16.42,0,0,0,89.36,40a31.59,31.59,0,0,0-7.39.61m-54-.45c-4.56,6.38-9.16,12.73-13.72,19.11,1.9,0,3.79,0,5.69,0,.16,0,.36,0,.46-.15.79-1.09,1.55-2.21,2.36-3.29,2.9,0,5.8,0,8.69,0,.13,1.09.26,2.19.37,3.28,0,.18.18.11.27.13,1.82,0,3.64,0,5.45,0q-1.14-9.54-2.27-19.1H28m18.31,0L40.47,59.27c1.86,0,3.71,0,5.57,0,1.93-6.37,3.88-12.74,5.8-19.11H46.26m3.68,19.12H55.5c.65-2,1.2-4,1.87-6,1.93,0,3.85,0,5.77,0a2.31,2.31,0,0,1,1.81.61,2.33,2.33,0,0,1-.1,1.64c-.38,1.25-.78,2.5-1.13,3.75,1.85,0,3.71,0,5.56,0,.42-1.42.88-2.82,1.28-4.25a5.71,5.71,0,0,0,.29-1.69,2.78,2.78,0,0,0-1.12-2.12,5.63,5.63,0,0,0,1.72-1.06,9.53,9.53,0,0,0,2-4,6.42,6.42,0,0,0,.28-3.39,2.61,2.61,0,0,0-1.25-1.7,9.64,9.64,0,0,0-4.62-.94q-6.07,0-12.16,0c-1.92,6.38-3.87,12.75-5.79,19.12m50.54-19.05Q97.6,49.75,94.7,59.27c5.58,0,11.15,0,16.73,0,.39-1.38.84-2.74,1.22-4.13H101.53c.38-1.25.76-2.51,1.13-3.76,3.51,0,7,0,10.52,0,.35-1.25.73-2.49,1.12-3.72-3.49-.08-7,0-10.48-.07.33-1.09.66-2.18,1-3.27,3.68,0,7.36,0,11,0,.41-1.38.87-2.76,1.24-4.15-5.45,0-10.9,0-16.35,0a1.27,1.27,0,0,0-.28.06m19.14-.06c-1.67,5.57-3.38,11.12-5.05,16.69-.22.81-.52,1.6-.7,2.42,5.33,0,10.65,0,16,0,.54-1.4.9-2.86,1.35-4.3-3.49,0-7,0-10.47,0,1-3.27,2-6.53,3-9.79.49-1.68,1-3.34,1.5-5C123.33,40.16,121.48,40.14,119.62,40.16Z" style="fill:#183883"/><path id="path7" d="M60,44.31c2.17,0,4.35,0,6.52,0,.57,0,1.33.26,1.37.93A5.52,5.52,0,0,1,67,48.09a2,2,0,0,1-1.31.86,13.22,13.22,0,0,1-2.67.17c-1.48,0-3,0-4.45,0C59.07,47.52,59.57,45.92,60,44.31Z" style="fill:#183883"/><path id="path9" d="M30.24,45.28l.05,0c.27,2.25.53,4.51.76,6.77H25.4a4.31,4.31,0,0,1,.42-.63C27.29,49.39,28.72,47.3,30.24,45.28Z" style="fill:#183883"/><path d="M140.8,30.72c0,2.09,0,4.18,0,6.27q0,15.92,0,31.82a2.64,2.64,0,0,1,0,.29H195V30.72Zm44.55,22.65a49.1,49.1,0,0,1-5.09,2.52,39.77,39.77,0,0,1-31.67-.69c-1.46-.63-2.81-1.48-4.21-2.23a60.76,60.76,0,0,0,11.37,3.18,56.06,56.06,0,0,0,28.78-2.64c.5-.13.93-.46,1.44-.55A2.16,2.16,0,0,1,185.35,53.37Zm3.46-7.45a32.51,32.51,0,0,1-26.12,5.85A32.88,32.88,0,0,1,157,50.05l-.17-.15a46.4,46.4,0,0,0,14.58,1,45.92,45.92,0,0,0,18.31-5.76A5.39,5.39,0,0,1,188.81,45.92ZM191,39.05a23.73,23.73,0,0,1-20.84,7.32c-.43-.07-.85-.16-1.27-.22a37.54,37.54,0,0,0,6.27-.41A33.65,33.65,0,0,0,190.65,39a5.56,5.56,0,0,0,.74-.64.93.93,0,0,0,.14.14A3.12,3.12,0,0,0,191,39.05Z" style="fill:#da251c"/></svg>