<svg id="Layer_1" data-name="Layer 1" xmlns="http://www.w3.org/2000/svg" width="200" height="100" viewBox="0 0 200 100"><title>Bajaj-Capital_Logo</title><path d="M29.06,46.28c.37-.1.74-.26,1.13-.38a8.31,8.31,0,0,1,3.9-.17A9.72,9.72,0,0,1,40.57,51a8.71,8.71,0,0,1,.36,5c-1.17,5.4-7.8,9.37-14.72,8.38A14.32,14.32,0,0,1,21.72,63a10.27,10.27,0,0,1-3-2.16c-4.7-5-4.43-13.3-3.56-19.59A56.51,56.51,0,0,1,16.68,34a22.37,22.37,0,0,1,.64-2.28,9.11,9.11,0,0,0-3.41.61,11,11,0,0,0-5.44,4.6c-.13.21-.23.42-.36.63a7.49,7.49,0,0,0-.36.69A20.53,20.53,0,0,0,6,46.29v1.08a24.55,24.55,0,0,0,1,6.22,23.38,23.38,0,0,0,2.41,5.63c.25.4.52.82.8,1.2l.42.58,3,3.07c.21.16.36.3.56.45l1.8,1.19a7.37,7.37,0,0,0,.68.37,20.49,20.49,0,0,0,9.85,2.23,23.11,23.11,0,0,0,8.63-1.41,15.34,15.34,0,0,0,1.41-.64,13.88,13.88,0,0,0,4.89-4.14,18.1,18.1,0,0,0,1.17-1.89c.11-.22.21-.45.31-.68s.18-.45.28-.72a13.2,13.2,0,0,0,.76-6.08,11.79,11.79,0,0,0-.53-2.52c-.07-.24-.17-.5-.26-.73s-.22-.46-.31-.69a1.49,1.49,0,0,0-.16-.31,10.65,10.65,0,0,0-.56-1,9.45,9.45,0,0,0-4.44-3.6c-1.64-.63-5.17-1.07-6.89-.07A3,3,0,0,0,29.06,46.28Z" style="fill:#fddc08;fill-rule:evenodd"/><path d="M29.06,46.28a3.18,3.18,0,0,0,.34,1.77,2.48,2.48,0,0,0,1.14,1.08c1.41.59,1.76-.09,3.88,1a2.64,2.64,0,0,1,.35.23,4.12,4.12,0,0,1,1.5,1.8,3.15,3.15,0,0,1,.35,1.86c0,4.27-2.83,6.65-7.15,5.79A5.57,5.57,0,0,1,26,57.79a9.56,9.56,0,0,1-1.7-4.91c0-.23-.09-.75-.09-1a31.08,31.08,0,0,1,.15-4.27c.1-1.19.56-4.53.58-5.45A13.64,13.64,0,0,0,25,40c0-.19,0-.36,0-.55a8.75,8.75,0,0,0-1.79-4.82,7.44,7.44,0,0,0-2.49-1.93,8.27,8.27,0,0,0-1.58-.63l-1.77-.41A22.37,22.37,0,0,0,16.68,34a56.51,56.51,0,0,0-1.5,7.26c-.87,6.29-1.14,14.6,3.56,19.59a10.27,10.27,0,0,0,3,2.16,14.32,14.32,0,0,0,4.49,1.41c6.92,1,13.55-3,14.72-8.38a8.71,8.71,0,0,0-.36-5,9.72,9.72,0,0,0-6.48-5.23,8.31,8.31,0,0,0-3.9.17c-.39.12-.76.28-1.13.38Z" style="fill:#e43034;fill-rule:evenodd"/><path d="M67,49.09a4.23,4.23,0,0,0-1.51-.8c.11-.17,2.15-1.2,2.15-3.46a3.82,3.82,0,0,0-1.83-3.64,7.56,7.56,0,0,0-3.84-1H53V57.06H62.1a12.27,12.27,0,0,0,2.07-.18A8.36,8.36,0,0,0,66,56.35a4.2,4.2,0,0,0,2.3-2.27A4.47,4.47,0,0,0,67,49.09Zm-10.13-6h3.84c1.53,0,3,.44,3,1.95,0,1.86-1.8,2-3.68,2H56.9Zm5,11h-5V49.92h4c2,0,3.68.25,3.68,2.15C64.57,53.57,63.18,54.07,61.89,54.07Z" style="fill:#e42f34;fill-rule:evenodd"/><path d="M153.44,44a6.54,6.54,0,0,0-2.75,0,5.7,5.7,0,0,0-1.15.32,5,5,0,0,0-1.3.85c-.19.15-.18.26-.36.38V44h-3.62v17.7H148v-6A5.32,5.32,0,0,0,152,57.27a6.43,6.43,0,0,0,4.58-1.82,5.79,5.79,0,0,0,1.3-1.9,7.4,7.4,0,0,0-1.3-7.9A6.22,6.22,0,0,0,153.44,44Zm.67,8.58a2.79,2.79,0,0,1-.75.88,2.41,2.41,0,0,1-.5.33,2.92,2.92,0,0,1-1.35.33,3.08,3.08,0,0,1-2.57-1,4.15,4.15,0,0,1,0-5.22,3.37,3.37,0,0,1,4.8.07,3.65,3.65,0,0,1,.86,2.65A3.83,3.83,0,0,1,154.11,52.58Z" style="fill:#e42f34;fill-rule:evenodd"/><path d="M124.89,44.39a3.08,3.08,0,0,1,.77.8l2.58-2.31a5.05,5.05,0,0,0-.91-.94,7.37,7.37,0,0,0-1.45-1,9.72,9.72,0,0,0-4.79-1.09A9.35,9.35,0,0,0,116,41.29a2.4,2.4,0,0,0-.31.21l-.34.24-.6.5-1,1.18-.63,1a8.78,8.78,0,0,0-1,4,8.61,8.61,0,0,0,1.66,5.42,10.57,10.57,0,0,0,1,1.16,9.45,9.45,0,0,0,5.38,2.34,11,11,0,0,0,4.28-.43,8.58,8.58,0,0,0,2.49-1.3,5.38,5.38,0,0,0,1.26-1.26,3.46,3.46,0,0,0-.57-.58L125.71,52c-.18.13-.56.57-1.11,1a5.06,5.06,0,0,1-1.39.71,5.44,5.44,0,0,1-5.65-9A5.67,5.67,0,0,1,124.89,44.39Z" style="fill:#e42f34;fill-rule:evenodd"/><path d="M82,57.06c.12,0,.16,0,.16-.15V50.55c0-2.29-.26-4.53-2.33-5.76a6.76,6.76,0,0,0-3.13-.91,9.5,9.5,0,0,0-2.45.07,13.1,13.1,0,0,0-1.52.33,8.79,8.79,0,0,0-2.5,1.12c.47.89.9,1.8,1.37,2.68.12-.08.19-.15.34-.24,2.11-1.29,6.38-1.76,6.38,1.56-2.76,0-6.48-.39-8,1.91a3.51,3.51,0,0,0-.55,2.18,3.57,3.57,0,0,0,1.49,2.82,6.35,6.35,0,0,0,4.7.85,3.59,3.59,0,0,0,2.54-1.55l.1-.12v1.57ZM77.4,54.18a3.36,3.36,0,0,1-1.8.52c-2.87,0-2.8-3-.26-3h3C78.33,52.76,78.5,53.42,77.4,54.18Z" style="fill:#e42f34;fill-rule:evenodd"/><path d="M103.28,57.06V50.24a9.8,9.8,0,0,0-.32-2.83,4.77,4.77,0,0,0-3.15-3.16,8.06,8.06,0,0,0-2-.37,9.5,9.5,0,0,0-2.45.07A10.39,10.39,0,0,0,92,45.05c-.21.12-.38.24-.59.35.47.89.9,1.8,1.37,2.68a6.21,6.21,0,0,1,3.88-1.21c1.67,0,2.84.78,2.84,2.53-2.14,0-5.12-.22-6.85.82-3,1.8-2.21,7.05,3.17,7.05A4.73,4.73,0,0,0,99.38,56a2.36,2.36,0,0,1,.33-.41v1.52Zm-4.76-2.87a3.48,3.48,0,0,1-1.8.51,2.84,2.84,0,0,1-1.42-.32c-1.25-.76-.91-2.72,1.15-2.72h3C99.45,52.62,99.61,53.5,98.52,54.19Z" style="fill:#e42f34;fill-rule:evenodd"/><path d="M185.86,44.62c-.15-.08-.34-.16-.51-.23a10.53,10.53,0,0,0-8.2.66c-.21.12-.38.25-.59.35.11.46,1.2,2.19,1.31,2.68a8.52,8.52,0,0,1,1.59-.83c1.87-.67,5.19-.75,5.19,2.15-2.19,0-5.1-.22-6.83.79a3.4,3.4,0,0,0-1.75,3.1,3.88,3.88,0,0,0,.33,1.62c1.47,3,6.43,3,8.14,1l.32-.41v1.52h3.57V49.34A5,5,0,0,0,185.86,44.62Zm-2.12,9.53a3.22,3.22,0,0,1-1.82.55c-2.48,0-2.55-2-1.59-2.69a2.71,2.71,0,0,1,1.38-.35h2.94C184.65,52.72,184.8,53.38,183.74,54.15Z" style="fill:#e42f34;fill-rule:evenodd"/><path d="M137.81,44.18a10.07,10.07,0,0,0-4.2-.23,13.39,13.39,0,0,0-1.51.33,8.07,8.07,0,0,0-1.31.47l-.59.3c-.24.13-.39.24-.6.35L131,48.08a4.81,4.81,0,0,1,.73-.47,5.43,5.43,0,0,1,.85-.36c2-.66,5.14-.74,5.14,2.15-2.77,0-6.49-.39-8,1.91a3.77,3.77,0,0,0,1,5,6.44,6.44,0,0,0,5.75.49,3.25,3.25,0,0,0,1.4-1.12l.15-.21v1.57h3.52V49.19a5.22,5.22,0,0,0-1.75-4A5.57,5.57,0,0,0,137.81,44.18Zm-.49,9.46a1.93,1.93,0,0,1-.61.56,3.17,3.17,0,0,1-1.8.5c-2.3,0-2.55-1.9-1.56-2.66a2.62,2.62,0,0,1,1.35-.38h3C137.69,52.66,137.82,53,137.32,53.64Z" style="fill:#e42f34;fill-rule:evenodd"/><path d="M174.91,55.09l-.5-1.33a2.55,2.55,0,0,1-1.68.47c-1,0-1.47-.74-1.47-1.74V47.24h3.25V44.35h-3.25v-3.2h-3.79v3.2h-2v2.89h2V53c0,3.69,3.56,4.83,6.56,4.08a3.15,3.15,0,0,0,.75-.25l.63-.37a4.34,4.34,0,0,0-.25-.65C175.07,55.52,175,55.35,174.91,55.09Z" style="fill:#e42f34;fill-rule:evenodd"/><path d="M85.05,44.35V52A55.75,55.75,0,0,1,85,58a1.34,1.34,0,0,1-1.15.89c-1.63,0-1.11-.23-1.89-.42a2.85,2.85,0,0,1-.22.68A17.87,17.87,0,0,0,81,61.27a5.48,5.48,0,0,0,3.2.68,4.54,4.54,0,0,0,4.73-4.89V44H85.21C85,44,85.05,44.17,85.05,44.35Z" style="fill:#e42f34;fill-rule:evenodd"/><path d="M106.23,56.7c0,.9-.2,2.2-1.32,2.2a2.74,2.74,0,0,1-1.84-.42l-.52,1.37a7.38,7.38,0,0,0-.47,1.42,5.81,5.81,0,0,1,.56.28,6.94,6.94,0,0,0,4.63,0A4.12,4.12,0,0,0,109,60.31a5.23,5.23,0,0,0,1-3.25V44h-3.78Z" style="fill:#e42f34;fill-rule:evenodd"/><rect x="191.22" y="39.1" width="3.78" height="17.96" style="fill:#e42f34"/><rect x="160.33" y="44.04" width="3.78" height="13.03" style="fill:#e42f34"/><path d="M162.19,38a2.48,2.48,0,0,0-1.63.57,2.18,2.18,0,0,0-.25.28,2,2,0,0,0-.45,1.23,2.16,2.16,0,0,0,2.2,2.15h.32a2.13,2.13,0,1,0-.19-4.23Z" style="fill:#e42f34;fill-rule:evenodd"/><path d="M87.56,38.07c-1.49-.26-2.92.58-2.92,1.92a2,2,0,0,0,.67,1.69A2.55,2.55,0,0,0,89.15,41a2,2,0,0,0-.48-2.4A2.39,2.39,0,0,0,87.56,38.07Z" style="fill:#e42f34;fill-rule:evenodd"/><path d="M107.22,38.15A2.07,2.07,0,0,0,105.75,40,2.13,2.13,0,0,0,108,42.25a2.29,2.29,0,0,0,2.33-1.3,2.12,2.12,0,0,0,.11-1.35C110.09,38.23,108.42,37.76,107.22,38.15Z" style="fill:#e42f34;fill-rule:evenodd"/></svg>