<svg id="Layer_1" data-name="Layer 1" xmlns="http://www.w3.org/2000/svg" width="200" height="100" viewBox="0 0 200 100"><title>Byjus_Logo</title><path d="M51.68,73.09H10.32c-1.84,0-4.81-1.41-4.82-3.17a5,5,0,0,0,4.93,4.93l41.13-.12a5,5,0,0,0,4.91-4.67C56.32,71.75,53.64,73.09,51.68,73.09Z" style="fill:#60286e"/><path d="M36.52,45.36A7,7,0,0,0,37,35.14a6.32,6.32,0,0,0-6.58-1.88L20.19,36.19a1.63,1.63,0,0,0-1.06,2l7.52,26a1.64,1.64,0,0,0,2,1.06l9.87-2.82a8.56,8.56,0,0,0,6.11-7.88A8.65,8.65,0,0,0,36.52,45.36Z" style="fill:#823589"/><path d="M51.68,25.38H10.32c-1.77,0-4.82,1.41-4.82,3.18V69.92c0,1.76,3,3.17,4.82,3.17H51.68c2,0,4.81-1.41,4.81-3.17V28.56C56.49,26.79,53.44,25.38,51.68,25.38Zm-5,30.2A11.16,11.16,0,0,1,39.34,64L28.76,67.1A3,3,0,0,1,24.89,65L17.25,38.31a3.14,3.14,0,0,1,2.11-3.88l10.58-3.05a8.86,8.86,0,0,1,8.93,2.82,9.05,9.05,0,0,1,1.06,9.87A10.66,10.66,0,0,1,46.63,55.58Z" style="fill:#823589"/><path d="M36.52,45.36A7,7,0,0,0,37,35.14a6.32,6.32,0,0,0-6.58-1.88L20.19,36.19a1.63,1.63,0,0,0-1.06,2l0,.08,8.44-2.43a6.14,6.14,0,0,1,6.46,1.88,6.65,6.65,0,0,1-.47,9.75,8,8,0,0,1,8,8A8.16,8.16,0,0,1,36.25,63l2.27-.64a8.56,8.56,0,0,0,6.11-7.88A8.65,8.65,0,0,0,36.52,45.36Z" style="fill:#4c205b"/><path d="M28.65,65.22a2,2,0,0,1-.64,0A1.54,1.54,0,0,0,28.65,65.22Z" style="fill:#4c205b"/><path d="M81.88,39.84a7.65,7.65,0,0,0,3.75-6.47c0-5.17-3.64-8.81-10.81-8.81H66.6a2.78,2.78,0,0,0-2.94,2.94v26A2.77,2.77,0,0,0,66.6,56.4l8.22.12c9.4.12,12.46-4,12.46-8.93A8.19,8.19,0,0,0,81.88,39.84ZM75.53,51.12H69.42V30.2H76A3.46,3.46,0,0,1,79.76,34c0,1.88-1.17,2.82-3.06,3.17s-3.17,1.18-3.17,3.06,1.18,2.94,3.17,3.17c3.41.35,4.47,1.53,4.47,4.11C81.17,49.82,79.17,51.12,75.53,51.12Z" style="fill:#823589"/><path d="M114.07,27.73A2.83,2.83,0,0,0,111,25a3.12,3.12,0,0,0-2.7,1.76L101.73,38l-6.7-11c-.7-1.06-1.29-1.76-2.7-1.76a2.89,2.89,0,0,0-3,2.7,3.91,3.91,0,0,0,.82,2.47l8.58,13.75v9c0,2.12,1.29,3.41,2.94,3.41s3-1.29,3-3.41V44l8.58-13.75A4.42,4.42,0,0,0,114.07,27.73Z" style="fill:#823589"/><path d="M167.06,25.15c-2.23.12-3.05,1.53-3.05,4.11v2.35c0,2.82.82,4.47,2.58,4.47a2.16,2.16,0,0,0,2-1.41,19.29,19.29,0,0,0,1.53-6.35C170.12,26.32,169.18,25.15,167.06,25.15Z" style="fill:#823589"/><path d="M128.17,25.27c-1.88,0-2.94,1.29-2.94,3.4V45.24c0,3.76-1.29,5.52-4.23,5.52-5,.12-2.82-5.17-6.34-5.52a3,3,0,0,0-3.29,3.06c0,2.82,2.47,8.22,9.4,8.22s10.34-4.11,10.34-11.4V28.67C131.11,26.56,129.82,25.27,128.17,25.27Z" style="fill:#823589"/><path d="M178.81,33.26c0-1.88,1.3-2.94,3.41-2.94a5.68,5.68,0,0,1,3.88,1.17c1.06.83,1.88,2.47,3.64,2.47a2.65,2.65,0,0,0,2.82-2.47c0-2.11-2.11-4.11-4-5.28a12.16,12.16,0,0,0-6.47-1.65c-4.7.12-9.28,2.7-9.28,8.81,0,9.87,14.57,8.11,14.57,14.34,0,2.23-1.76,3.41-4.35,3.41-2.11,0-3.76-1.06-5.4-2.59a4.1,4.1,0,0,0-2.82-1.76A2.73,2.73,0,0,0,172,49.71a4.9,4.9,0,0,0,1.05,2.7,12.67,12.67,0,0,0,10.11,4.46c5.52,0,10.22-3.17,10.22-8.81C193.38,37.13,178.81,38.19,178.81,33.26Z" style="fill:#823589"/><path d="M157,25.15c-1.65,0-2.94,1.29-2.94,3.41V42.89c0,5.88-1.88,7.76-5.52,7.76S143,48.77,143,42.89V28.56c0-2.12-1.17-3.41-2.93-3.41s-2.94,1.29-2.94,3.41v14.8c0,8.7,4.23,13,11.52,13s11.51-4.34,11.27-13V28.56C159.89,26.44,158.72,25.15,157,25.15Z" style="fill:#823589"/><path d="M140.15,25.74c1.77,0,2.94,1.29,2.94,3.4v-.58c0-2.12-1.29-3.41-2.94-3.41s-2.93,1.29-2.93,3.41v.58A2.92,2.92,0,0,1,140.15,25.74Z" style="fill:#a154a1"/><path d="M143.09,43.48c0,5.87,1.88,7.75,5.52,7.75s5.53-1.88,5.53-7.75v-.59c0,5.88-1.88,7.76-5.53,7.76s-5.52-1.88-5.52-7.76Z" style="fill:#a154a1"/><path d="M178.93,33.61V34c0,4.82,14.22,3.76,14.57,14.45v-.23C193.5,37.37,179.4,38.19,178.93,33.61Z" style="fill:#a154a1"/><path d="M92.45,25.74a3.09,3.09,0,0,1,2.7,1.76l6.7,11,6.7-11c.7-1.06,1.29-1.76,2.7-1.76a2.94,2.94,0,0,1,3,2.46v-.35a2.82,2.82,0,0,0-3-2.7,3.09,3.09,0,0,0-2.7,1.76L101.85,38l-6.7-11c-.7-1.06-1.29-1.76-2.7-1.76a2.89,2.89,0,0,0-3,2.7v.35A2.86,2.86,0,0,1,92.45,25.74Z" style="fill:#a154a1"/><path d="M174.82,47.36a3.7,3.7,0,0,1,2.7,1.76c1.65,1.53,3.29,2.58,5.52,2.58,2.59,0,4.35-1.05,4.35-3.4v-.36c-.12,2-1.88,3.06-4.35,3.06a7.47,7.47,0,0,1-5.52-2.59c-.7-.82-1.64-1.76-2.7-1.76A2.73,2.73,0,0,0,172,49.59v.23A2.74,2.74,0,0,1,174.82,47.36Z" style="fill:#a154a1"/><path d="M182.34,25.27a12.42,12.42,0,0,1,6.46,1.64c1.76,1.06,3.76,2.94,4,4.94v-.24c0-2.11-2.11-4.11-4-5.29a12.13,12.13,0,0,0-6.46-1.64c-4.7.12-9.4,2.7-9.4,8.81v.24C173.17,27.85,177.64,25.38,182.34,25.27Z" style="fill:#a154a1"/><path d="M111.37,48.3v.35a2.84,2.84,0,0,1,3.17-2.82c3.52.35,1.41,5.52,6.34,5.52,2.94,0,4.23-1.76,4.23-5.52v-.59c0,3.76-1.29,5.52-4.23,5.52-5,.12-2.82-5.17-6.34-5.52A2.91,2.91,0,0,0,111.37,48.3Z" style="fill:#a154a1"/><path d="M157.07,25.15c-1.76,0-2.93,1.29-2.93,3.41v.58c0-2.11,1.29-3.4,2.93-3.4S160,27,160,29.14v-.58C160.13,26.44,159,25.15,157.07,25.15Z" style="fill:#a154a1"/><path d="M167.18,25c-2.23.12-3.05,1.53-3.05,4.11v.59c0-2.58.94-4,3.05-4.11a2.81,2.81,0,0,1,3.06,2.94v-.24C170.23,26.32,169.29,25,167.18,25Z" style="fill:#a154a1"/><path d="M128.17,25.15c-1.88,0-2.94,1.29-2.94,3.41v.58c0-2.11,1.06-3.4,2.94-3.4s2.94,1.29,2.94,3.4v-.58C131.11,26.44,129.93,25.15,128.17,25.15Z" style="fill:#a154a1"/><path d="M66.48,25.27h8.23c7.05,0,10.69,3.52,10.81,8.46v-.24c0-5.17-3.64-8.81-10.81-8.81H66.48a2.78,2.78,0,0,0-2.94,2.94v.58A2.78,2.78,0,0,1,66.48,25.27Z" style="fill:#a154a1"/><path d="M76.7,37.13c-2,.36-3.17,1.18-3.17,3.06v.35c.12-1.64,1.29-2.35,3.17-2.7s3.06-1.29,3.06-3.29V34.2C79.64,35.84,78.47,36.78,76.7,37.13Z" style="fill:#a154a1"/><path d="M75.53,51.59c3.76,0,5.64-1.3,5.64-3.65v-.35c-.12,2.23-2,3.41-5.64,3.41H69.42v.59Z" style="fill:#a154a1"/><path d="M81.88,40.07h0l-.24.12c-.12,0-.12.12,0,.23h.12l.35.12a8.11,8.11,0,0,1,5.41,7.52v-.35a10.44,10.44,0,0,0-.36-2.7A9.5,9.5,0,0,0,81.88,40.07Z" style="fill:#a154a1"/><path d="M63.31,62.87a.89.89,0,0,1,.24-.59.86.86,0,0,1,.58-.24h7.05a.82.82,0,0,1,.83.83.86.86,0,0,1-.24.58.89.89,0,0,1-.59.24H68.6v8.46a1,1,0,0,1-.35.7,1,1,0,0,1-.71.36,1,1,0,0,1-.7-.36.84.84,0,0,1-.24-.7V63.69H64.25a.89.89,0,0,1-.59-.24A.64.64,0,0,1,63.31,62.87Z" style="fill:#6d6e71"/><path d="M73.65,72.27v-9.4a.89.89,0,0,1,.24-.59,1,1,0,0,1,.7-.24.81.81,0,0,1,.82.83v3.4a4.75,4.75,0,0,1,1.18-.94A3.83,3.83,0,0,1,78.23,65a2.3,2.3,0,0,1,1.88.71,2.47,2.47,0,0,1,.71,1.88v4.81a.82.82,0,0,1-.83.83.81.81,0,0,1-.82-.83h0V68.15a1.93,1.93,0,0,0-.35-1.29,2.15,2.15,0,0,0-2.35,0,5,5,0,0,0-.82.71v4.7a.86.86,0,0,1-.24.58.89.89,0,0,1-.59.24c-.82.12-1.17-.35-1.17-.82Z" style="fill:#6d6e71"/><path d="M82.58,69.09A4.62,4.62,0,0,1,83.05,67a4.32,4.32,0,0,1,1.41-1.53,4.08,4.08,0,0,1,2.11-.59,4.27,4.27,0,0,1,2.36.71,3.14,3.14,0,0,1,1.29,2.11,3.74,3.74,0,0,1,.23,1.06.94.94,0,0,1-.23.59c-.12.23-.35.23-.59.23H84.34A2.05,2.05,0,0,0,85.05,71a2.82,2.82,0,0,0,1.76.59,4.35,4.35,0,0,0,1.76-.35c.12,0,.24-.12.36-.12a.62.62,0,0,1,.47.24.9.9,0,0,1,.23.47.64.64,0,0,1-.35.58,1.27,1.27,0,0,1-.83.36,3.6,3.6,0,0,1-1,.23c-.36,0-.59.12-.94.12-2.24.12-3.88-1.3-3.88-4Zm1.76-.7h4.47a1.48,1.48,0,0,0-.12-.71,2.45,2.45,0,0,0-.35-.58,2.24,2.24,0,0,0-.71-.47,3.32,3.32,0,0,0-1.06-.24,2.24,2.24,0,0,0-1.52.59,2.7,2.7,0,0,0-.71,1.41Z" style="fill:#6d6e71"/><path d="M96.45,71.91V63a1,1,0,0,1,.35-.7.84.84,0,0,1,.7-.24,1,1,0,0,1,.71.36.7.7,0,0,1,.35.7v8.46h4.11a.89.89,0,0,1,.59.24.86.86,0,0,1,.24.58,1.67,1.67,0,0,1-.24.71.88.88,0,0,1-.59.23H97.86c-.83-.23-1.41-.82-1.41-1.41Z" style="fill:#6d6e71"/><path d="M104.2,69.09a4.62,4.62,0,0,1,.47-2.11,4.32,4.32,0,0,1,1.41-1.53,4.09,4.09,0,0,1,2.12-.59,4.26,4.26,0,0,1,2.35.71,3.14,3.14,0,0,1,1.29,2.11,3.74,3.74,0,0,1,.23,1.06.94.94,0,0,1-.23.59c0,.23-.24.23-.47.23h-5.29a2,2,0,0,0,.7,1.41,2.85,2.85,0,0,0,1.77.59,4.39,4.39,0,0,0,1.76-.35c.12,0,.23-.12.35-.12a.59.59,0,0,1,.47.24.85.85,0,0,1,.24.47.63.63,0,0,1-.36.58,4,4,0,0,1-1.64.71c-.35,0-.59.12-.94.12a3.9,3.9,0,0,1-4.11-3.88c-.12,0-.12-.12-.12-.24Zm1.88-.7h4.47a1.48,1.48,0,0,0-.12-.71,2.44,2.44,0,0,0-.36-.58,2.21,2.21,0,0,0-.7-.47,3.32,3.32,0,0,0-1.06-.24,2.28,2.28,0,0,0-1.53.59,2.06,2.06,0,0,0-.7,1.41Z" style="fill:#6d6e71"/><path d="M113.37,70.62a4,4,0,0,1,.23-1.17,1.6,1.6,0,0,1,.7-.83,2.49,2.49,0,0,1,1-.47,3.42,3.42,0,0,1,1-.11,5,5,0,0,1,1.41.23,2.41,2.41,0,0,1,1.06.71V67.8a1.75,1.75,0,0,0-.47-1.06,2.4,2.4,0,0,0-1.29-.35,3.46,3.46,0,0,0-1.88.47c-.12,0-.24.12-.36.12a.62.62,0,0,1-.47-.24.9.9,0,0,1-.23-.47.43.43,0,0,1,.12-.35,3.06,3.06,0,0,1,1.29-.82,4.6,4.6,0,0,1,1.76-.35,5.12,5.12,0,0,1,1.29.11,4.3,4.3,0,0,1,1.06.47,1.84,1.84,0,0,1,.71.94,2.82,2.82,0,0,1,.23,1.3V72a.94.94,0,0,1-.23.59.91.91,0,0,1-.59.23h-.23a.62.62,0,0,1-.48-.23.43.43,0,0,1-.23-.59v-.12a6,6,0,0,1-1.06.83,3,3,0,0,1-1.41.23,3.14,3.14,0,0,1-1-.12,3.23,3.23,0,0,1-1-.47,5,5,0,0,1-.7-.82A1.82,1.82,0,0,1,113.37,70.62Zm1.88,0a1.41,1.41,0,0,0,.47,1.06,2,2,0,0,0,1.17.35A1.79,1.79,0,0,0,118,71.8a2.16,2.16,0,0,0,.82-.59V70a2,2,0,0,0-.82-.58,3.38,3.38,0,0,0-1.06-.24,2,2,0,0,0-1.17.35A1.27,1.27,0,0,0,115.25,70.62Z" style="fill:#6d6e71"/><path d="M122.77,72.27V65.8a.86.86,0,0,1,.23-.58,1,1,0,0,1,.7-.24.82.82,0,0,1,.83.82v.47A2.62,2.62,0,0,1,126.41,65c.23,0,.35.12.58.24a.86.86,0,0,1,.24.58,1.67,1.67,0,0,1-.24.71,2.45,2.45,0,0,1-.58.35,2.08,2.08,0,0,0-1.77.94v4.58a.8.8,0,0,1-.82.83h0a.91.91,0,0,1-.59-.24A.83.83,0,0,1,122.77,72.27Z" style="fill:#6d6e71"/><path d="M128.52,72.27V65.8a.86.86,0,0,1,.24-.58,1,1,0,0,1,.7-.24.8.8,0,0,1,.82.82v.36a4.49,4.49,0,0,1,1.18-.94,3.69,3.69,0,0,1,1.64-.36,2.3,2.3,0,0,1,1.88.71,2.49,2.49,0,0,1,.71,1.88v4.82a.82.82,0,0,1-.82.82.81.81,0,0,1-.83-.82h0V68a1.89,1.89,0,0,0-.35-1.3,2,2,0,0,0-1.17-.35,2.3,2.3,0,0,0-1.18.35,5,5,0,0,0-.82.71v4.7a.8.8,0,0,1-.82.82c-.82.24-1.18-.23-1.18-.7Z" style="fill:#6d6e71"/><path d="M137.69,63a.7.7,0,0,1,.35-.7,1.25,1.25,0,0,1,1.53,0,1,1,0,0,1,.35.7A1.05,1.05,0,0,1,138.86,64,1.16,1.16,0,0,1,137.69,63Zm.11,9.29V65.8a.86.86,0,0,1,.24-.58,1,1,0,0,1,.7-.24.81.81,0,0,1,.83.82v6.47a.86.86,0,0,1-.24.58.89.89,0,0,1-.59.24.83.83,0,0,1-.94-.82Z" style="fill:#6d6e71"/><path d="M141.8,72.27V65.8a.91.91,0,0,1,.23-.58,1,1,0,0,1,.71-.24.8.8,0,0,1,.82.82v.36a4.33,4.33,0,0,1,1.18-.94,3.66,3.66,0,0,1,1.64-.36,2.32,2.32,0,0,1,1.88.71,2.49,2.49,0,0,1,.71,1.88v4.82a.86.86,0,0,1-.24.58.89.89,0,0,1-.59.24.8.8,0,0,1-.82-.82h0V68a1.94,1.94,0,0,0-.35-1.3,2,2,0,0,0-1.18-.35,2.29,2.29,0,0,0-1.17.35,5,5,0,0,0-.82.71v4.7A.8.8,0,0,1,143,73a.82.82,0,0,1-1.18-.7Z" style="fill:#6d6e71"/><path d="M150.73,69a5,5,0,0,1,.94-3.06,3.48,3.48,0,0,1,2.58-1.06,3,3,0,0,1,1.41.36,4.33,4.33,0,0,1,1.18.94V65.8a.91.91,0,0,1,.23-.58,1,1,0,0,1,.71-.24.8.8,0,0,1,.82.82v6.7a7.36,7.36,0,0,1-.23,1.53,5.39,5.39,0,0,1-.59,1.06,7,7,0,0,1-.94.7,3.66,3.66,0,0,1-1.06.35,8.31,8.31,0,0,1-2.94-.11,2.84,2.84,0,0,1-1.29-.71.7.7,0,0,1-.12-.47c0-.23.12-.35.24-.59s.35-.23.59-.23a.43.43,0,0,1,.35.12,3.89,3.89,0,0,0,2,.47,1.71,1.71,0,0,0,.82-.12l.7-.35a1.22,1.22,0,0,0,.59-.71,3.32,3.32,0,0,0,.24-1.06v-.94a4.49,4.49,0,0,1-1.18.94,3.08,3.08,0,0,1-1.41.36,3.65,3.65,0,0,1-2.58-1.06A3.06,3.06,0,0,1,150.73,69Zm2.35-1.88a3,3,0,0,0,0,3.64,2.13,2.13,0,0,0,1.65.7,2.2,2.2,0,0,0,1.17-.35,1.65,1.65,0,0,0,.82-.7V67.45a1.6,1.6,0,0,0-.82-.71,2,2,0,0,0-1.17-.35,2.33,2.33,0,0,0-1.65.71Z" style="fill:#6d6e71"/><path d="M164.36,72a.42.42,0,0,1,.12-.35l3.4-8.7a1.24,1.24,0,0,1,.59-.7,1.26,1.26,0,0,1,.94-.24h.12a2.17,2.17,0,0,1,.94.24,1.6,1.6,0,0,1,.71.82l3.4,8.7v.35a.81.81,0,0,1-.35.7,1,1,0,0,1-.71.36.63.63,0,0,1-.58-.24c-.12-.12-.36-.23-.36-.47L172,71h-5.06l-.58,1.53A1.59,1.59,0,0,1,166,73a.86.86,0,0,1-.58.24.71.71,0,0,1-.71-.36A1.07,1.07,0,0,1,164.36,72Zm3.17-2.82h3.88l-2-5.17Z" style="fill:#6d6e71"/><path d="M176.11,75.32V65.8a.91.91,0,0,1,.23-.58,1,1,0,0,1,.71-.24.8.8,0,0,1,.82.82v.36a7.38,7.38,0,0,1,1.06-.94,3.08,3.08,0,0,1,1.41-.36,3.65,3.65,0,0,1,2.58,1.06,4.14,4.14,0,0,1,.94,3.06,4.2,4.2,0,0,1-1.05,3,3.36,3.36,0,0,1-2.59,1.18,3.08,3.08,0,0,1-1.41-.36,4.29,4.29,0,0,1-1.17-.94v3.53a.91.91,0,0,1-.24.59.86.86,0,0,1-1.17,0C176.23,75.79,176.11,75.56,176.11,75.32Zm1.76-4.7a1.64,1.64,0,0,0,.82.71,3.71,3.71,0,0,0,1.18.35,2.31,2.31,0,0,0,1.64-.71,2.26,2.26,0,0,0,.59-1.88,3.51,3.51,0,0,0-.59-1.88,2.11,2.11,0,0,0-1.64-.7,2.36,2.36,0,0,0-1.18.35,1.66,1.66,0,0,0-.82.71Z" style="fill:#6d6e71"/><path d="M185.63,75.32V65.8a.91.91,0,0,1,.23-.58,1,1,0,0,1,.71-.24.8.8,0,0,1,.82.82v.36a6.88,6.88,0,0,1,1.06-.94,3.08,3.08,0,0,1,1.41-.36,3.65,3.65,0,0,1,2.58,1.06,4.14,4.14,0,0,1,.94,3.06,4.71,4.71,0,0,1-.94,3,3.36,3.36,0,0,1-2.58,1.18,3.08,3.08,0,0,1-1.41-.36,4.49,4.49,0,0,1-1.18-.94v3.53a.83.83,0,0,1-1.41.59A1.65,1.65,0,0,1,185.63,75.32Zm1.76-4.7a1.64,1.64,0,0,0,.82.71,3.71,3.71,0,0,0,1.18.35A2.31,2.31,0,0,0,191,71a2.26,2.26,0,0,0,.59-1.88,3.6,3.6,0,0,0-.59-1.88,2.11,2.11,0,0,0-1.64-.7,2.33,2.33,0,0,0-1.18.35,1.66,1.66,0,0,0-.82.71Z" style="fill:#6d6e71"/><path d="M10.32,25.38H51.68c1.72,0,4.66,1.36,4.79,3.06a5,5,0,0,0-4.91-4.7H10.43a4.88,4.88,0,0,0-4.91,4.71C5.64,26.74,8.59,25.38,10.32,25.38Z" style="fill:#a154a1"/></svg>