<svg id="Layer_1" data-name="Layer 1" xmlns="http://www.w3.org/2000/svg" width="200" height="100" viewBox="0 0 200 100"><title>Chai-Point_Logo</title><path d="M91.47,37.92a.3.3,0,0,0,0,.17h.9a31.86,31.86,0,0,1,5.92.67,9.66,9.66,0,0,1,1.94.6,2.53,2.53,0,0,1,.67.4.63.63,0,0,1,.23.67c-.42,2.28-.84,4.57-1.25,6.85a.77.77,0,0,1-.1.29,4.67,4.67,0,0,0-.62,1.78Q98.06,54.5,97,59.63l-.87,4.15a1.84,1.84,0,0,1-.74,1.14,4.42,4.42,0,0,1-1.75.72,7.78,7.78,0,0,1-1.8.22,7.89,7.89,0,0,1-3.1-.6,2.46,2.46,0,0,1-.92-.68,1.71,1.71,0,0,1-.37-.75L84.5,50.06c-.1-.49-.21-1-.31-1.45A1.56,1.56,0,0,0,84,48a3,3,0,0,1-.42-1.19c-.38-2.09-.76-4.19-1.16-6.28a.82.82,0,0,1,.39-.93A5.86,5.86,0,0,1,84.29,39a21.11,21.11,0,0,1,3-.61l.72-.08c.16,0,.27-.07.3-.24a1.47,1.47,0,0,1,.1-.22h.11c0,.13-.12.24-.1.39l.84-.06A16.51,16.51,0,0,1,91,38.1a.34.34,0,0,0,.33-.19Zm-.89,4h0a.18.18,0,0,0-.14-.09c-.56,0-1.12,0-1.68-.08-.11,0-.08.08-.12.12l0,0c-.09-.18-.27-.18-.44-.2a20.77,20.77,0,0,1-2.48-.32,5.61,5.61,0,0,1-1.59-.48v-.13a16.16,16.16,0,0,0,4.29.76A6.26,6.26,0,0,1,88,40a5.82,5.82,0,0,1,.16-1.49h-.13c-.63.08-1.26.17-1.88.29a12.55,12.55,0,0,0-2.42.66,2.53,2.53,0,0,0-.73.42.56.56,0,0,0-.22.64c0,.1,0,.2,0,.3.35,1.93.71,3.85,1.05,5.78a3.14,3.14,0,0,0,.42,1.19,1.5,1.5,0,0,1,.19.47c.24,1.22.49,2.44.75,3.65q1.17,5.64,2.33,11.26a1.78,1.78,0,0,0,.67,1.08,3.48,3.48,0,0,0,1,.52,8.69,8.69,0,0,0,2.14.4A7.28,7.28,0,0,0,93.52,65,4.66,4.66,0,0,0,95,64.47a2,2,0,0,0,1-1.37c.35-1.79.74-3.58,1.11-5.37l1.74-8.42a5.1,5.1,0,0,1,.65-2,.45.45,0,0,0,.07-.23c.4-2.17.8-4.35,1.21-6.52a.67.67,0,0,0-.29-.74,3.43,3.43,0,0,0-.85-.44,17.45,17.45,0,0,0-3.84-.84c-.77-.11-1.54-.17-2.32-.21s-1.29,0-1.94,0a.27.27,0,0,0-.28.14l-.1-.13c-.83,0-1.65.08-2.47.15-.27,0-.27,0-.33.3a4,4,0,0,0,.14,2.43c.15.38.09.33.46.34l.3,0a8.94,8.94,0,0,0,1.27,0l0-.28h.11c.11.31.11.31.46.33h.21c1.39,0,2.78,0,4.17-.14a22.31,22.31,0,0,0,2.81-.38,3.83,3.83,0,0,0,1.6-.59l0,.06a.41.41,0,0,1-.23.22,3.41,3.41,0,0,1-1,.37,22.7,22.7,0,0,1-4.64.61c-1,.05-2.11.09-3.17,0-.06,0-.11,0-.12.07Z" style="fill:#353532"/><path d="M91.75,68.85a12.14,12.14,0,0,1,3.23.37,3.34,3.34,0,0,1,.71.26c.29.15.65.29.64.69s-.34.52-.63.66a5.13,5.13,0,0,1-1.26.4,14.8,14.8,0,0,1-4,.19A9.54,9.54,0,0,1,88.15,71a2.15,2.15,0,0,1-.75-.39.5.5,0,0,1,0-.88,2.8,2.8,0,0,1,.87-.42,9.11,9.11,0,0,1,1.8-.36,13.25,13.25,0,0,1,1.67-.08Z" style="fill:#292a27"/><path d="M88.57,37.86h-.11a6,6,0,0,1,.69-1.27,25.74,25.74,0,0,1,1.56-2,20.46,20.46,0,0,0,1.53-2.07,6.75,6.75,0,0,0,1-2.52A5.79,5.79,0,0,0,92.9,27a14,14,0,0,0-2-3.57A27.73,27.73,0,0,1,89.17,21a9,9,0,0,1-1-2.28,5.05,5.05,0,0,1-.12-.56,2.18,2.18,0,0,1,.77-2l0,0a3.21,3.21,0,0,1-.21.3,2.2,2.2,0,0,0-.42,1.88,6.68,6.68,0,0,0,.78,2,22,22,0,0,0,2,3,16,16,0,0,1,1.87,3.07A7,7,0,0,1,93.45,29a5.76,5.76,0,0,1-.72,2.93A16.12,16.12,0,0,1,91,34.34l-.59.73a14.13,14.13,0,0,0-1.86,2.79Z" style="fill:#4a4745"/><path d="M91.47,37.92h-.11a5,5,0,0,1,.47-.81c.62-1,1.26-1.9,1.88-2.86A12.6,12.6,0,0,0,95,31.65,5.41,5.41,0,0,0,94.59,27a9.76,9.76,0,0,0-1.31-1.77,23.5,23.5,0,0,1-2.18-2.79,6.66,6.66,0,0,1-.84-1.74,2.94,2.94,0,0,1,.44-2.56.8.8,0,0,1-.08.33l-.12.31a3,3,0,0,0,.06,2.38,10.63,10.63,0,0,0,1.26,2.1,26.55,26.55,0,0,0,1.8,2.17A9.58,9.58,0,0,1,94.71,27a5.45,5.45,0,0,1,.39,4.89,12,12,0,0,1-1.22,2.36c-.51.79-1,1.57-1.55,2.35l-.86,1.36Z" style="fill:#4a4745"/><path d="M91.56,43.74c-.21-.34-.43-.68-.62-1a2.89,2.89,0,0,1-.36-.8h.11a9.94,9.94,0,0,0,.9,1.63.83.83,0,0,0,.19.23.73.73,0,0,0,.16.23,11.48,11.48,0,0,0,1.11,1.31c-.16.08-.22,0-.29-.11-.37-.38-.69-.81-1-1.22A.87.87,0,0,0,91.56,43.74Z" style="fill:#4a4745"/><path d="M90.4,41.32a2.1,2.1,0,0,1,0-1.24A8.52,8.52,0,0,1,91,38.61c0-.09.12-.17.11-.28l.1.13c-.15.36-.31.72-.47,1.07a2.94,2.94,0,0,0-.2,1.78Z" style="fill:#4a4745"/><path d="M84.08,40.89c-.36-.15-.44-.24-.46-.54a1.14,1.14,0,0,0,.47.41Z" style="fill:#4a4745"/><path d="M91.94,44a.73.73,0,0,1-.16-.23,30.22,30.22,0,0,1,3.56.2,16.08,16.08,0,0,1,2.38.44,4.67,4.67,0,0,1,.9.35A1,1,0,0,1,99,45a.42.42,0,0,1,.11.42L97.35,54q-.84,4.11-1.67,8.22a1.07,1.07,0,0,1-.55.78,5.65,5.65,0,0,1-1.73.6,8.54,8.54,0,0,1-4.11-.21,3.36,3.36,0,0,1-1-.49.82.82,0,0,1-.37-.56l-1.5-7.26c-.56-2.7-1.11-5.4-1.67-8.1-.11-.51-.21-1-.32-1.54a.44.44,0,0,1,.16-.48,1.67,1.67,0,0,1,.54-.33,9.17,9.17,0,0,1,2-.54,20.59,20.59,0,0,1,2.35-.26,2,2,0,0,0,.24,0,.92.92,0,0,1,.17.22l-1.12.07a18.73,18.73,0,0,0-2.69.38,3.43,3.43,0,0,0-1,.37c-.33.2-.33.41,0,.61a2.66,2.66,0,0,0,.7.29,15.51,15.51,0,0,0,2.63.43c.82.08,1.65.11,2.48.13A32.75,32.75,0,0,0,96.63,46a8.43,8.43,0,0,0,1.3-.3,2.16,2.16,0,0,0,.49-.22c.34-.21.34-.42,0-.63a1.13,1.13,0,0,0-.27-.13,5.05,5.05,0,0,0-.55-.18,15.55,15.55,0,0,0-2.35-.38,30.37,30.37,0,0,0-3.3-.15Zm-6.49,4.18h0c0,.08,0,.12,0,.17a9.35,9.35,0,0,1,.38.92,27.22,27.22,0,0,1,.84,3c.47,2,.88,4,1.27,6,.21,1.09.42,2.18.53,3.29a1.29,1.29,0,0,1,0,.48c-.07.27,0,.32.21.4a.71.71,0,0,0,.46.06,1.37,1.37,0,0,1-.38-.77c0-.29-.1-.58-.13-.87-.13-1-.28-2-.46-2.93-.36-2-.86-3.86-1.39-5.77a14.13,14.13,0,0,1-.44-2,1.46,1.46,0,0,1,.54-1.48s0,0,0-.06l-1.46-.41Zm7.16.72H90.46a.23.23,0,0,0,.13.1,1,1,0,0,1,.74.94,13,13,0,0,1,0,1.87c0,1.14,0,2.28,0,3.43s.1,2,.15,3,0,1.86.11,2.79c0,.38.08.76.09,1.15a.43.43,0,0,1-.3.44c-.07,0-.17,0-.24.13a4,4,0,0,0,1.19,0c-.39-.1-.49-.4-.53-.74a1.94,1.94,0,0,0,0-.24c0-.68-.06-1.36-.06-2,0-1.16-.06-2.33-.14-3.48a41.75,41.75,0,0,1-.11-4.18,17.37,17.37,0,0,1,.17-2,1.19,1.19,0,0,1,.9-1.16Zm4.12-.47h0a.63.63,0,0,1,.39.69A5.8,5.8,0,0,1,97,50.43c-.27,1.47-.65,2.92-1,4.38-.45,2-.82,4-1.08,6a2.77,2.77,0,0,1-.47,1.57,1.47,1.47,0,0,0,.58-.19c.09-.06.15-.14.09-.25a.82.82,0,0,1,0-.51q0-.51.12-1c.32-2,.71-4,1.12-6.05.28-1.32.55-2.65.76-4a4.5,4.5,0,0,1,.81-2.37,12.14,12.14,0,0,1-1.16.36Zm-3,.36h0c.49.27.59.43.6.9,0,.25,0,.49,0,.73-.08.8-.11,1.59-.17,2.39s-.12,1.41-.22,2.11-.22,1.48-.32,2.22c-.16,1.21-.27,2.43-.33,3.65a12.44,12.44,0,0,1-.1,1.36.61.61,0,0,1-.39.56v.07a2.6,2.6,0,0,0,.88-.21c-.33,0-.35-.19-.34-.37,0-.43,0-.85.06-1.27.08-.84.17-1.67.27-2.51.12-1,.24-2.06.39-3.09a33.53,33.53,0,0,0,.34-3.74,7.81,7.81,0,0,1,.38-2.2,1.1,1.1,0,0,1,.54-.67s.1,0,.11-.11Zm-6.06-.1h0v0l.35.16a1,1,0,0,1,.6.75c0,.11,0,.22.06.33a13.14,13.14,0,0,1,.13,1.54,20.32,20.32,0,0,0,.27,2.92c.19,1.05.35,2.1.52,3.14s.31,2.06.46,3.09a7.35,7.35,0,0,1,.13,1.24.75.75,0,0,1-.32.74,2.2,2.2,0,0,0,1,.11,1.35,1.35,0,0,1-.4-.82c-.07-.44-.13-.88-.19-1.32q-.18-1.55-.45-3.06c-.27-1.58-.62-3.15-.78-4.75a23.75,23.75,0,0,1-.17-3.15,1,1,0,0,1,.31-.79l-1.49-.15Z" style="fill:#dc2d2c"/><path d="M89.9,44a.92.92,0,0,0-.17-.22c-.23-.34-.46-.68-.68-1a.83.83,0,0,1-.17-.32l.07-.07c.26.38.48.78.76,1.15a1.49,1.49,0,0,0,.23.27.8.8,0,0,0,.18.23,12.3,12.3,0,0,0,1.14,1.28c-.18.06-.24-.06-.31-.13C90.58,44.82,90.25,44.41,89.9,44Z" style="fill:#4a4745"/><path d="M88.63,41.85a.21.21,0,0,1,.13.25C88.62,42.08,88.57,42,88.63,41.85Z" style="fill:#353532"/><path d="M89,42.39l-.07.07c0-.08-.18-.13-.06-.24S88.92,42.32,89,42.39Z" style="fill:#353532"/><path d="M99.76,40.53s0-.12.09-.08,0,.1,0,.14l0-.06Z" style="fill:#353532"/><path d="M88.76,42.09c.08,0,.1.06.06.13s-.07,0-.09,0S88.7,42.12,88.76,42.09Z" style="fill:#353532"/><path d="M90.12,44a.8.8,0,0,1-.18-.23l1.62-.07a.87.87,0,0,1,.16.23l-.8,0a3.05,3.05,0,0,0-.8,0Z" style="fill:#dc2d2c"/><path d="M85.45,48.17l1.46.41s0,.06,0,.06a1.46,1.46,0,0,0-.54,1.48,14.13,14.13,0,0,0,.44,2c.53,1.91,1,3.82,1.39,5.77.18,1,.33,1.95.46,2.93,0,.29.08.58.13.87a1.37,1.37,0,0,0,.38.77.71.71,0,0,1-.46-.06c-.26-.08-.28-.13-.21-.4a1.29,1.29,0,0,0,0-.48c-.11-1.11-.32-2.2-.53-3.29-.39-2-.8-4-1.27-6a27.22,27.22,0,0,0-.84-3,9.35,9.35,0,0,0-.38-.92c0-.05-.06-.09,0-.17Z" style="fill:#292a27"/><path d="M92.61,48.89a1.19,1.19,0,0,0-.9,1.16,17.37,17.37,0,0,0-.17,2,41.75,41.75,0,0,0,.11,4.18c.08,1.15.13,2.32.14,3.48,0,.67,0,1.35.06,2a1.94,1.94,0,0,1,0,.24c0,.34.14.64.53.74a4,4,0,0,1-1.19,0c.07-.11.17-.1.24-.13a.43.43,0,0,0,.3-.44c0-.39,0-.77-.09-1.15-.08-.93-.06-1.86-.11-2.79s-.09-2-.15-3-.05-2.29,0-3.43a13,13,0,0,0,0-1.87,1,1,0,0,0-.74-.94.23.23,0,0,1-.13-.1Z" style="fill:#292a27"/><path d="M96.73,48.42a12.14,12.14,0,0,0,1.16-.36,4.5,4.5,0,0,0-.81,2.37c-.21,1.33-.48,2.66-.76,4-.41,2-.8,4-1.12,6.05q-.08.51-.12,1a.82.82,0,0,0,0,.51c.06.11,0,.19-.09.25a1.47,1.47,0,0,1-.58.19,2.77,2.77,0,0,0,.47-1.57c.26-2,.63-4,1.08-6,.32-1.46.7-2.91,1-4.38a5.8,5.8,0,0,0,.14-1.32.63.63,0,0,0-.39-.69Z" style="fill:#292a27"/><path d="M93.75,48.78l1.68-.18c0,.08-.07.09-.11.11a1.1,1.1,0,0,0-.54.67,7.81,7.81,0,0,0-.38,2.2,33.53,33.53,0,0,1-.34,3.74c-.15,1-.27,2.06-.39,3.09-.1.84-.19,1.67-.27,2.51,0,.42-.05.84-.06,1.27,0,.18,0,.37.34.37a2.6,2.6,0,0,1-.88.21V62.7a.61.61,0,0,0,.39-.56,12.44,12.44,0,0,0,.1-1.36c.06-1.22.17-2.44.33-3.65.1-.74.22-1.48.32-2.22s.16-1.41.22-2.11.09-1.59.17-2.39c0-.24,0-.48,0-.73C94.34,49.21,94.24,49.05,93.75,48.78Z" style="fill:#292a27"/><path d="M87.69,48.68l1.49.15a1,1,0,0,0-.31.79A23.75,23.75,0,0,0,89,52.77c.16,1.6.51,3.17.78,4.75q.27,1.51.45,3.06c.06.44.12.88.19,1.32a1.35,1.35,0,0,0,.4.82,2.2,2.2,0,0,1-1-.11.75.75,0,0,0,.32-.74,7.35,7.35,0,0,0-.13-1.24c-.15-1-.3-2.06-.46-3.09s-.33-2.09-.52-3.14a20.32,20.32,0,0,1-.27-2.92,13.14,13.14,0,0,0-.13-1.54c0-.11,0-.22-.06-.33a1,1,0,0,0-.6-.75l-.35-.16v0Z" style="fill:#292a27"/><path d="M85.84,44.87c-.17.21-.17.27,0,.39a2.65,2.65,0,0,0,.86.29,18.35,18.35,0,0,0,2.67.31l.9.06s.11,0,.12.06-.12.05-.18.05a32.44,32.44,0,0,1-3.41-.29,5.21,5.21,0,0,1-1.22-.31c-.14,0-.32-.1-.31-.29s.17-.21.3-.26l.23-.08Z" style="fill:#353532"/><path d="M92.52,45.94c.46,0,.93,0,1.39,0,.78,0,1.56-.08,2.34-.19.06,0,.13.07.19,0a22.49,22.49,0,0,1-3.92.35v-.09Z" style="fill:#4a4745"/><path d="M92.52,45.94V46c-.46,0-.91,0-1.34,0,0-.08,0-.1,0-.1Z" style="fill:#353532"/><path d="M91,46a.64.64,0,0,1-.49,0A.56.56,0,0,1,91,46Z" style="fill:#353532"/><path d="M85.84,44.87V44.8c0-.06.12,0,.19,0h0a.45.45,0,0,1-.18.1Z" style="fill:#4a4745"/><path d="M86,44.77l0,0s0,0,0,0Z" style="fill:#4a4745"/><path d="M17.65,47.81a9.51,9.51,0,0,1,5.08,1.81,3.51,3.51,0,0,0,.66.42c.28.13.48,0,.53-.29a1.93,1.93,0,0,0,0-.34c0-1.28,0-2.56,0-3.84a.74.74,0,0,0-.41-.72,11.93,11.93,0,0,0-6.66-1.94A11.46,11.46,0,0,0,5.43,53.38a2.14,2.14,0,0,1-.22,1.08v.79a1,1,0,0,1,.19.68,12.76,12.76,0,0,0,.27,1.84,11.44,11.44,0,0,0,10.19,8.91,11.91,11.91,0,0,0,7.72-1.94.69.69,0,0,0,.36-.64c0-1.34,0-2.67,0-4a2.3,2.3,0,0,0-.05-.45c0-.18-.16-.24-.34-.16a2,2,0,0,0-.58.43,6.09,6.09,0,0,1-2.49,1.39,10,10,0,0,1-3.91.35A6.15,6.15,0,0,1,11,57a9.18,9.18,0,0,1-.18-3.58A6.29,6.29,0,0,1,17.65,47.81Z" style="fill:#295d36"/><path d="M44.67,43.68H40.44c-.41,0-.52.14-.54.56,0,.13,0,.26,0,.39,0,2.26,0,4.52,0,6.78,0,.45,0,.45-.45.45h-7.8c-.16,0-.23-.07-.22-.24v-.39q0-3.45,0-6.89c0-.58-.07-.66-.64-.66H26.53a.41.41,0,0,0-.42.43V65.29c0,.62.08.71.67.71,1.33,0,2.67,0,4,0A1,1,0,0,0,31,66c.33,0,.43-.13.46-.45a3.38,3.38,0,0,0,0-.45V56.85a.19.19,0,0,1,.21-.21h8c.26,0,.33.1.31.33s0,.23,0,.34q0,4,0,8c0,.63.1.73.71.73,1.26,0,2.53,0,3.79,0,.79,0,.82,0,.82-.83v-21C45.2,43.79,45.11,43.68,44.67,43.68Z" style="fill:#295d36"/><path d="M69.38,65.29q-3-7.67-6.08-15.33C62.54,48,61.76,46.09,61,44.15a.64.64,0,0,0-.66-.48H56.18a.56.56,0,0,0-.6.41c0,.11-.08.21-.12.32q-3.47,8.76-7,17.52L47.1,65.49c-.16.41-.11.48.34.51h.17c1.39,0,2.78,0,4.17,0,.54,0,.56,0,.77-.56s.43-1.16.65-1.73.08-.54.74-.54h.79l7.84,0c.49,0,.49,0,.67.48s.47,1.23.67,1.85a.67.67,0,0,0,.74.53c.72,0,1.43,0,2.15,0s1.43,0,2.14,0,.7,0,.47-.65ZM55,58.89c1.09-3,2.16-5.84,3.28-8.85l3.26,8.85Z" style="fill:#295d36"/><path d="M76,43.68H72.37c-.93,0-.93,0-.93,1V64.34c0,.34,0,.67,0,1,0,.57.09.65.67.65,1,0,2.11,0,3.16,0,.32,0,.64,0,1,0s.55-.13.57-.59V44.46C76.8,43.74,76.74,43.68,76,43.68Z" style="fill:#295d36"/><path d="M194.48,43.56h-18c-.61,0-.65,0-.65.63s0,.86,0,1.29c0,.74,0,1.47,0,2.2,0,.43.09.51.53.53h6.06c.46,0,.44,0,.44.41V64.74c0,.15,0,.3,0,.45,0,.47.11.58.56.58,1.4,0,2.81,0,4.21,0,.45,0,.55-.12.57-.57V48.85c0-.13,0-.26,0-.39s.08-.26.27-.25h6.06a.68.68,0,0,0,.65-.21V43.72A1,1,0,0,0,194.48,43.56Z" style="fill:#295d36"/><path d="M145.12,51.42a11.27,11.27,0,0,0-12.21-8.51,10.86,10.86,0,0,0-7.62,4.35,11.73,11.73,0,0,0-2.42,7.1,11.91,11.91,0,0,0,1.59,6.44,11.17,11.17,0,0,0,18.63,1.28,11.79,11.79,0,0,0,2.42-7.44c0-.52,0-1-.09-1.56A15.61,15.61,0,0,0,145.12,51.42ZM138,59.89a5.4,5.4,0,0,1-7.81-.19,7.44,7.44,0,0,1-1.86-5.47,6.83,6.83,0,0,1,2.1-4.88,5.43,5.43,0,0,1,7.46-.05A7.24,7.24,0,0,1,140,55,7,7,0,0,1,138,59.89Z" style="fill:#295d36"/><path d="M173.29,43.56h-3.88a.36.36,0,0,0-.37.4V57.1l-.1,0-.33-.46q-4.43-6.31-8.86-12.64a.91.91,0,0,0-.86-.47c-1.16,0-2.32,0-3.48,0-.62,0-.68.06-.68.67v20.9c0,.59.05.64.64.64q1.74,0,3.48,0c.74,0,.75,0,.75-.75V51.69a1.4,1.4,0,0,1,.45.52l5.07,7.48q1.9,2.81,3.8,5.62a.88.88,0,0,0,.87.47c.48,0,1,0,1.46,0,.69,0,1.38,0,2.08,0,.51,0,.61-.11.63-.63V44.24C174,43.62,173.9,43.56,173.29,43.56Z" style="fill:#295d36"/><path d="M119.25,45.43a8.41,8.41,0,0,0-5.14-1.8c-2.38-.14-4.76-.05-7.13-.07h-.06c-.48,0-.56.1-.57.56,0,.2,0,.41,0,.62v9.89h0V64.91c0,.86,0,.86.89.86h4a.4.4,0,0,0,.42-.43c0-.15,0-.3,0-.45V58.1c0-.43,0-.44.43-.43a13.43,13.43,0,0,0,3.84-.36c2.82-.72,5.53-2.72,5.65-6.64A6.29,6.29,0,0,0,119.25,45.43Zm-4.51,7.82a8.38,8.38,0,0,1-2.82.31c-.25,0-.26-.15-.26-.33V48.07c0-.41,0-.41.38-.42a8.88,8.88,0,0,1,2.67.26,2.37,2.37,0,0,1,1.91,1.83A2.74,2.74,0,0,1,114.74,53.25Z" style="fill:#295d36"/><path d="M152,43.56h-4.22a.41.41,0,0,0-.42.43V65c0,.7.06.76.77.76,1.28,0,2.55,0,3.82,0,.66,0,.73-.06.73-.69V44.24C152.68,43.63,152.61,43.57,152,43.56Z" style="fill:#295d36"/></svg>