<svg id="Layer_1" data-name="Layer 1" xmlns="http://www.w3.org/2000/svg" width="200" height="100" viewBox="0 0 200 100"><title>Dr-Lal-Pathlabs_Logo</title><polygon points="195.11 20.79 195.5 75.02 7.32 74.26 6.93 20.04 195.11 20.79" style="fill:#fed144;fill-rule:evenodd"/><path d="M191.21,75,7.32,74.26l-.38-53-2.44,0c1.73,12,2.38,28.17.12,56.72,32.07-1.61,61.72-2.53,89.76-2.53a946.65,946.65,0,0,1,97,4.54v-.1Z" style="fill:#c8c3c1"/><path d="M125.58,48.89c-.78.23-1.54.49-2.29.79a13,13,0,0,0-2.17,1.1l-.37.24-.29.25a1.61,1.61,0,0,0-.41.6,2.64,2.64,0,0,0-.1.8A.65.65,0,0,0,120,53a.33.33,0,0,0,.26.1,2.23,2.23,0,0,0,1.1-.46,13.44,13.44,0,0,0,1.46-1.11l.38-.34.37-.32c.45-.4.84-.78,1.2-1.15s.62-.65.79-.84v0Zm3.5,3.41h0l-.72.61-.89.74A5.54,5.54,0,0,1,127,54l-.47.34a11,11,0,0,1-1.1.66,2.27,2.27,0,0,1-1,.26.78.78,0,0,1-.56-.25,1.45,1.45,0,0,1-.32-.54v-.24a3.47,3.47,0,0,1,.18-1,13.25,13.25,0,0,1,.63-1.49,8.58,8.58,0,0,0-.71.59l-1,.84-.24.18-.23.19a12.64,12.64,0,0,1-1.2.84,1.92,1.92,0,0,1-.9.36,1.14,1.14,0,0,1-.85-.43,3.88,3.88,0,0,1-.61-1,2.45,2.45,0,0,1-.23-.56,3.65,3.65,0,0,1-.13-.49v-.69l0-.23a1.42,1.42,0,0,1,.14-.35,2.64,2.64,0,0,1,.23-.35,6.53,6.53,0,0,1,1.68-1.54,16.94,16.94,0,0,1,2.32-1.29,14.42,14.42,0,0,1,2-.73,5.66,5.66,0,0,1,1.59-.28,1.32,1.32,0,0,1,.73.19,1.55,1.55,0,0,1,.51.56l.07.14,0,.09-.13.27-.28.16-.19.08-.15,0a1.13,1.13,0,0,1,.47.33.88.88,0,0,1,.13.48,1.17,1.17,0,0,1-.3.71c-.2.26-.42.53-.65.79s-.19.24-.29.35l-.26.34a4.85,4.85,0,0,0-.29.54,1.14,1.14,0,0,0-.12.49.56.56,0,0,0,.2.45.75.75,0,0,0,.51.17h.1l.09,0a1.84,1.84,0,0,0,.84-.34c.33-.22.92-.65,1.8-1.29a2.61,2.61,0,0,0,0,.34v.41l0,.17v0Zm-16.5-9.39h0q0,.33-.06.51a.81.81,0,0,1-.14.35l0,.08-.06.07-2.39,3.26.33,0,.33,0,.32,0h.32l.25.07.09.17-.09.15-.21.11-.46.12-.46.11-.46.11-.46.13-.47.68c.44.06.78.1,1,.11s.44,0,.63,0h.11a7.94,7.94,0,0,0,.85,0,8.1,8.1,0,0,0,.86-.13,11.36,11.36,0,0,0,2.48-.85,5.91,5.91,0,0,0,1.87-1.31,4.29,4.29,0,0,0,.36-.48,4,4,0,0,0,.32-.57,2.75,2.75,0,0,0,.24-.58,1.66,1.66,0,0,0,.09-.5c0-.39-.29-.69-.88-.88a9.21,9.21,0,0,0-1.91-.42c-.44-.06-.87-.1-1.28-.12l-1-.06h-.06v0Zm-1.23.11h0c-1,.1-1.94.23-2.91.37a19.7,19.7,0,0,0-2.85.68c-.4.14-.69.24-.87.28l-.48.09h-.15l-.24-.06-.09-.14a1.45,1.45,0,0,1,.2-.56c.13-.24.28-.49.45-.77l.12-.16.09-.16.56-.76c.17-.22.27-.34.3-.37a5.77,5.77,0,0,1,2.32-.89,21.68,21.68,0,0,1,3.72-.5l.62,0h1.24l.63,0a9.13,9.13,0,0,1,3.62,1,3.32,3.32,0,0,1,1.66,3.25,5.41,5.41,0,0,1-2.18,4.51,12.29,12.29,0,0,1-4.79,2.26c-.52.11-1,.2-1.53.26s-1,.08-1.47.08h-.26l-.75,0L107,51.25l-.9,1.42a.65.65,0,0,1,.31.17l.1.25a1.22,1.22,0,0,1-.23.51,7.71,7.71,0,0,1-.55.8,3.18,3.18,0,0,1-.27.37c-.11.11-.21.22-.31.34a3.11,3.11,0,0,1-.53.46.82.82,0,0,1-.45.18.69.69,0,0,1-.53-.2.8.8,0,0,1-.19-.57,2.46,2.46,0,0,1,.21-.87,9.72,9.72,0,0,1,.53-1.08l.19-.32.18-.3.53-.84c.16-.25.3-.47.41-.66-.17-.12-.31-.22-.43-.32l-.27-.28a1.54,1.54,0,0,1-.17-.34,1.64,1.64,0,0,1,0-.41,1.12,1.12,0,0,1,.22-.69,2.22,2.22,0,0,1,.81-.58,7.89,7.89,0,0,1,1-.38c.38-.13.84-.27,1.39-.43L111.35,43Zm-14.46,1h0l-.56.53c-.17.16-.33.32-.47.48A12.51,12.51,0,0,0,95,46.17a13.6,13.6,0,0,0-.72,1.2c-.11.2-.23.41-.35.64l-.33.69.49-.51c.15-.17.31-.34.47-.5A18.32,18.32,0,0,0,95.83,46a9.61,9.61,0,0,0,1.06-1.93v0Zm.68,8.25h0l-.64.52-.77.58-.6.39-.6.4a7.67,7.67,0,0,1-1.06.49,2.57,2.57,0,0,1-.93.19,1.63,1.63,0,0,1-1.38-.59A3.83,3.83,0,0,1,91,52.35a8.76,8.76,0,0,1,.73-3.51,17.13,17.13,0,0,1,1.78-3.12c.16-.22.37-.5.64-.81s.58-.65.9-1l.32-.34.35-.32c.47-.46.92-.85,1.33-1.18a1.81,1.81,0,0,1,.94-.49.4.4,0,0,1,.33.18.69.69,0,0,1,.15.46v0h0c0,.16,0,.32,0,.48s0,.33-.08.51a8,8,0,0,1-.2.81c-.08.27-.17.54-.27.79A8.19,8.19,0,0,1,96.54,47c-.57.69-1.17,1.36-1.8,2-.27.29-.54.56-.83.83l-.8.78c0,.23,0,.43-.07.6a3.91,3.91,0,0,0,0,.45,1.52,1.52,0,0,0,.3,1,1.14,1.14,0,0,0,.9.33,3.17,3.17,0,0,0,1.38-.37,13.17,13.17,0,0,0,2-1.3q0,.24,0,.39v.37l0,.19v0Zm-10-3.43h0c-.78.23-1.55.49-2.29.79a12.64,12.64,0,0,0-2.17,1.1l-.37.24-.29.25a1.5,1.5,0,0,0-.41.6,2.64,2.64,0,0,0-.1.8A.65.65,0,0,0,82,53a.34.34,0,0,0,.27.1,2.24,2.24,0,0,0,1.09-.46,14.48,14.48,0,0,0,1.46-1.11l.39-.34.36-.32c.44-.4.84-.78,1.2-1.15s.62-.65.79-.84v0Zm3.49,3.41h0c-.2.17-.43.38-.72.61s-.57.48-.88.74L89,54l-.47.34a10,10,0,0,1-1.1.66,2.27,2.27,0,0,1-1,.26.77.77,0,0,1-.56-.25,1.33,1.33,0,0,1-.32-.54v-.24a3.15,3.15,0,0,1,.18-1,11.94,11.94,0,0,1,.64-1.49,7.07,7.07,0,0,0-.72.59l-1,.84-.25.18-.22.19a12.64,12.64,0,0,1-1.2.84,2,2,0,0,1-.9.36,1.12,1.12,0,0,1-.85-.43,3.88,3.88,0,0,1-.61-1,3,3,0,0,1-.24-.56c0-.19-.09-.36-.13-.49v-.69l0-.23a1.42,1.42,0,0,1,.14-.35c.07-.12.14-.24.22-.35a6.76,6.76,0,0,1,1.69-1.54,16.37,16.37,0,0,1,2.32-1.29,14.81,14.81,0,0,1,2-.73,5.78,5.78,0,0,1,1.59-.28,1.31,1.31,0,0,1,.74.19,1.55,1.55,0,0,1,.51.56l.07.14,0,.09-.13.27-.28.16-.19.08-.15,0a1.13,1.13,0,0,1,.47.33.8.8,0,0,1,.13.48,1.17,1.17,0,0,1-.3.71c-.2.26-.41.53-.65.79l-.28.35c-.1.11-.18.23-.27.34a4.85,4.85,0,0,0-.29.54,1.14,1.14,0,0,0-.12.49.56.56,0,0,0,.2.45.75.75,0,0,0,.51.17h.09l.1,0a1.84,1.84,0,0,0,.84-.34c.33-.22.92-.65,1.8-1.29,0,.14,0,.26,0,.34v.41l0,.17v0Zm-20.63-.86h0a16.72,16.72,0,0,1,2.3.24c.73.13,1.47.28,2.2.45l.7.17.71.17,1.31.34c.44.1.89.2,1.35.28l-.38.39-.39.45a12.15,12.15,0,0,1-1.09,1,2.05,2.05,0,0,1-1.27.45,5.85,5.85,0,0,1-1-.12l-2.42-.46-.7-.14a5.54,5.54,0,0,0-.69-.12q-1.05-.2-2.1-.3c-.7-.07-1.4-.11-2.1-.11l-.21.11-.22.12c-.26.13-.52.25-.79.36a2.24,2.24,0,0,1-.84.16,1.59,1.59,0,0,1-.58-.08.32.32,0,0,1-.17-.31,2,2,0,0,1,.4-.87A16.91,16.91,0,0,1,65.64,52a1.1,1.1,0,0,1,.64-.34,7.73,7.73,0,0,1,1-.18,5.91,5.91,0,0,1,.7,0l.57,0h.26c.51-.58,1-1.21,1.56-1.88l1.62-2,1.44-1.71c.49-.57,1-1.12,1.46-1.65.33-.36.66-.7,1-1s.65-.65,1-.94c.91-.8,1.59-1.37,2.06-1.7A2.19,2.19,0,0,1,79.93,40a1,1,0,0,1,.81.37,1.4,1.4,0,0,1,.31.92,3.34,3.34,0,0,1-.2,1.06,6.81,6.81,0,0,1-.49,1.12c-.11.21-.24.43-.37.65l-.38.64c-.18.3-.37.58-.54.86s-.35.52-.49.77l.27.09.1.19c0,.07-.11.21-.3.43a8.26,8.26,0,0,1-.73.7l-.31.26-.33.26c-.26.18-.52.34-.76.48a1.5,1.5,0,0,1-.62.2.41.41,0,0,1-.34-.16.66.66,0,0,1-.13-.44,3.11,3.11,0,0,1,.13-.87,5,5,0,0,1,.37-.91,7.89,7.89,0,0,1,.61-1.09c.25-.36.49-.7.74-1s.36-.44.53-.64a6.64,6.64,0,0,1,.5-.54l.06-.07,0-.08,0-.06v-.07l0-.07-.07,0-.21.07-.28.25-.48.44-.49.46c-.27.27-.54.55-.8.83s-.52.58-.77.86l-2.63,3.05-2.27,2.52ZM61,52.32h0c-.18.16-.39.34-.64.53l-.75.61-.54.42-.57.39a4.51,4.51,0,0,1-.87.45,2.16,2.16,0,0,1-.83.17,1.27,1.27,0,0,1-1-.45,1.57,1.57,0,0,1-.41-1.11,3.09,3.09,0,0,1,.47-1.64,13.56,13.56,0,0,1,1-1.45l.26-.28.25-.29-2.4.49c-.17.2-.32.37-.46.51s-.26.28-.39.41l-.11.09-.1.08c-.17.16-.34.32-.54.48s-.46.37-.75.62v-.7l0-.25.4-.32.29-.24,0-.05.07-.08.17-.19.22-.23a.69.69,0,0,1-.42-.18.59.59,0,0,1-.12-.42,1.54,1.54,0,0,1,.08-.46,2.33,2.33,0,0,1,.21-.49,3.63,3.63,0,0,1,.53-.81,6.54,6.54,0,0,1,.68-.71,4.71,4.71,0,0,1,.64-.45A1.16,1.16,0,0,1,56,46.6l.28.13.15.26v.06l0,.22-.11.27,2.61-.36h.32a.78.78,0,0,1,.65.41,1.49,1.49,0,0,1,.27.9v.2l-.09.18a1.92,1.92,0,0,1-.47.63l-.67.66a7.58,7.58,0,0,0-.86.93,1.73,1.73,0,0,0-.4,1.12.67.67,0,0,0,.14.46.63.63,0,0,0,.46.14,1.86,1.86,0,0,0,.55-.09,4.16,4.16,0,0,0,.59-.25l.39-.22.4-.25.46-.31L61,51.4v.92ZM45.53,43.15h0c0,.16-.08.29-.11.41a2.17,2.17,0,0,1-.08.3l-.12.27-.12.22-.13.17-.14.2-1.32,1.63c-.53.65-1.1,1.39-1.73,2.2l-.45.54-.64.79-.15.2-.15.21c-.24.33-.45.64-.62.93a1.52,1.52,0,0,0-.26.7.51.51,0,0,0,.32.46,2,2,0,0,0,.91.16q.48,0,1,0l.94-.08a15.08,15.08,0,0,0,1.69-.31,13.19,13.19,0,0,0,1.91-.61A13.93,13.93,0,0,0,50,49.35,4.2,4.2,0,0,0,51.75,46a2.18,2.18,0,0,0-1.46-2.06,13.33,13.33,0,0,0-4.76-.75v0Zm-1.18,0h0c-.81.1-1.52.22-2.13.35a12.69,12.69,0,0,0-1.76.49l-.32.1a2.52,2.52,0,0,1-.33.13H41a1.56,1.56,0,0,1,.43.08l.13.16-.15.22a1.94,1.94,0,0,1-.5.16c-.2,0-.41.1-.63.17s-.44.13-.65.2l-.21,0-.18.06a8.49,8.49,0,0,1-.93.24,4,4,0,0,1-.9.1.84.84,0,0,1-.6-.2.72.72,0,0,1-.23-.55,1.53,1.53,0,0,1,0-.36,2.74,2.74,0,0,1,.09-.39l0-.18.07-.21.08-.26.07-.27a2.77,2.77,0,0,1,1.76-1.73,15.86,15.86,0,0,1,3.25-1,24.85,24.85,0,0,1,2.51-.39c.8-.08,1.43-.12,1.88-.12a10.49,10.49,0,0,1,3.63.56,4,4,0,0,1,2.83,2.56,7,7,0,0,1,.36,1.21c0,.21.08.42.11.63a4.26,4.26,0,0,1,0,.61A6.69,6.69,0,0,1,50.54,51a18.36,18.36,0,0,1-6.06,3.18,17.79,17.79,0,0,1-2.74.65,16.43,16.43,0,0,1-2.51.21,3,3,0,0,1-1.55-.29,1.15,1.15,0,0,1-.44-1,3.73,3.73,0,0,1,.17-1.07,8.67,8.67,0,0,1,.45-1.14,10.33,10.33,0,0,1,.83-1.36c.32-.45.64-.88,1-1.3l.75-.9.68-.77,3.26-4Z" style="fill:#36448e"/><path d="M186.61,52.32l-.18.15-.17.13-.42.3-.42.32a18,18,0,0,1-1.87,1.26,4.3,4.3,0,0,1-2.16.57,3.56,3.56,0,0,1-2-.59,1.62,1.62,0,0,1-.89-1.34,1,1,0,0,1,.34-.75,1.14,1.14,0,0,1,.8-.3,1.49,1.49,0,0,1,.72.19,4,4,0,0,1,.65.41l.11.07.08.08a3.6,3.6,0,0,0,1.17-1,2.49,2.49,0,0,0,.35-1.37V50c0-.13,0-.28-.05-.46s0-.46-.1-.83L181.21,50c-.36.32-.71.61-1,.88l-.11.11-.12.11-.78.59c-.27.2-.57.44-.92.69v-.69l0-.25c.75-.56,1.47-1.13,2.17-1.71a27.29,27.29,0,0,0,2-1.87,3.3,3.3,0,0,1,.53-1.27,1.11,1.11,0,0,1,.87-.34.65.65,0,0,1,.52.17,1.05,1.05,0,0,1,.19.6,2.09,2.09,0,0,0,.05.49c0,.16.07.32.12.48l0,.12,0,.12c.06.19.11.4.16.6a2.57,2.57,0,0,1,.08.62,3,3,0,0,1-.76,2.06,10.74,10.74,0,0,1-1.65,1.5l-.21.16-.23.16.34,0h.23a3.24,3.24,0,0,0,1.6-.42,12.54,12.54,0,0,0,1.47-.93l.4-.3.39-.28c0,.16,0,.29,0,.39v.37l0,.18v0Zm-9-10.2h0l-.26.25-.28.24a26.11,26.11,0,0,0-2.7,2.79,21.47,21.47,0,0,0-2.18,3.28,33.13,33.13,0,0,0,3-3,18.25,18.25,0,0,0,2.41-3.51Zm.62,10.18h0a8.69,8.69,0,0,1-1,.63,3.26,3.26,0,0,1-.89.31,1.91,1.91,0,0,1-.36.07l-.41,0-.4,0-.58-.08a8.43,8.43,0,0,1-1.75,1.31,3.23,3.23,0,0,1-1.44.43,1.21,1.21,0,0,1-1.11-.63,4.82,4.82,0,0,1-.48-2,9.23,9.23,0,0,1,1-4.27,17.15,17.15,0,0,1,2.49-3.66c.2-.21.46-.48.78-.79s.68-.64,1.09-1c.14-.13.29-.26.46-.39l.48-.4a14.14,14.14,0,0,1,1.48-1,2.45,2.45,0,0,1,1.15-.41.61.61,0,0,1,.47.21.89.89,0,0,1,.18.56v.14l0,.16,0,.07,0,.08a6.38,6.38,0,0,1-.3.74,7.24,7.24,0,0,1-.38.73,16.83,16.83,0,0,1-1.8,2.45c-.72.81-1.45,1.6-2.21,2.36L173,49.45c-.53.5-1,1-1.46,1.42l-.06.3,0,.23v.19a1.91,1.91,0,0,0,.25,1.06.83.83,0,0,0,.71.38l.23,0,.22-.08a1.58,1.58,0,0,0,.53-.38,3.24,3.24,0,0,0,.48-.6l-.2-.29-.09-.25v-.15a2,2,0,0,1,.07-.53,2.45,2.45,0,0,1,.23-.56,4.6,4.6,0,0,1,.87-1.26,3.52,3.52,0,0,1,1.19-.84l.33-.11a1.19,1.19,0,0,1,.33,0,.54.54,0,0,1,.44.2,1,1,0,0,1,.16.57,3.73,3.73,0,0,1-.4,1.5,11.52,11.52,0,0,1-1.19,2l.11.09.11.06.14.06h.31a2.12,2.12,0,0,0,.8-.24,10.65,10.65,0,0,0,1.24-.75l0,.23v.67Zm-11.91-3.41h0c-.79.23-1.56.5-2.3.79a12.93,12.93,0,0,0-2.16,1.1l-.38.25-.28.24a1.5,1.5,0,0,0-.41.6,2.62,2.62,0,0,0-.11.8.74.74,0,0,0,.07.37.34.34,0,0,0,.27.1,2.41,2.41,0,0,0,1.1-.46,15.65,15.65,0,0,0,1.45-1.11l.39-.34.36-.32c.44-.4.84-.78,1.2-1.15s.62-.65.8-.85Zm3.48,3.41h0c-.19.17-.43.38-.71.61l-.88.74-.46.37-.47.34a8,8,0,0,1-1.09.65,2.2,2.2,0,0,1-1,.27.72.72,0,0,1-.55-.26,1.24,1.24,0,0,1-.32-.53l0-.12v-.12a3.19,3.19,0,0,1,.19-1,9.86,9.86,0,0,1,.63-1.49c-.17.13-.41.32-.71.59l-1,.84-.24.18-.23.19a12.57,12.57,0,0,1-1.19.84,2,2,0,0,1-.9.36,1.12,1.12,0,0,1-.85-.43,4.91,4.91,0,0,1-.85-1.53c-.06-.2-.1-.36-.13-.49v-.69l0-.23a1.37,1.37,0,0,1,.13-.35,3.61,3.61,0,0,1,.23-.36,7.06,7.06,0,0,1,1.68-1.53,17,17,0,0,1,2.33-1.3,15.65,15.65,0,0,1,2-.72,5.72,5.72,0,0,1,1.59-.28,1.3,1.3,0,0,1,.73.19,1.66,1.66,0,0,1,.52.56l.06.14,0,.09-.13.27-.28.16-.19.08-.15,0a1.07,1.07,0,0,1,.47.33.78.78,0,0,1,.14.48,1.19,1.19,0,0,1-.31.71c-.2.26-.41.53-.64.8l-.29.34-.27.34c-.11.19-.21.37-.29.54a1.28,1.28,0,0,0-.11.49.53.53,0,0,0,.2.45.73.73,0,0,0,.51.17h.09l.1,0a1.86,1.86,0,0,0,.83-.34q.5-.33,1.8-1.29c0,.14,0,.26,0,.34v.56Zm-20.63-.86h0a17,17,0,0,1,2.31.24q1.09.2,2.19.45l.71.17.71.17c.42.12.86.23,1.3.34s.89.2,1.36.28l-.38.39a5.82,5.82,0,0,0-.4.45,9.89,9.89,0,0,1-1.09,1,2,2,0,0,1-1.27.44,5.54,5.54,0,0,1-1-.11l-2.43-.46-.69-.14-.7-.12q-1-.2-2.1-.3a20.94,20.94,0,0,0-2.1-.11l-.21.11-.21.12c-.26.13-.52.25-.8.36a2.19,2.19,0,0,1-.83.16,1.66,1.66,0,0,1-.59-.08.32.32,0,0,1-.17-.31,2,2,0,0,1,.42-.87A14.25,14.25,0,0,1,144.4,52a1.23,1.23,0,0,1,.65-.33,7.4,7.4,0,0,1,1-.18,5.75,5.75,0,0,1,.69,0l.58,0h.25c.51-.58,1-1.21,1.56-1.87l1.63-2c.48-.57.95-1.14,1.44-1.71s1-1.12,1.46-1.65c.33-.36.65-.7,1-1s.64-.65,1-.94a26.24,26.24,0,0,1,2.05-1.7,2.23,2.23,0,0,1,1.07-.49,1,1,0,0,1,.81.36,1.38,1.38,0,0,1,.31.93,3.08,3.08,0,0,1-.2,1.06,6.05,6.05,0,0,1-.49,1.12c-.11.21-.23.43-.36.65s-.26.42-.38.64l-.55.86c-.18.27-.34.52-.48.77l.27.09.09.18c0,.08-.1.22-.3.44a5.49,5.49,0,0,1-.73.7l-.31.26-.33.26c-.26.18-.52.34-.76.48a1.43,1.43,0,0,1-.61.2.43.43,0,0,1-.35-.16.72.72,0,0,1-.12-.44,3.49,3.49,0,0,1,.12-.87,5,5,0,0,1,.37-.91,8,8,0,0,1,.62-1.09c.24-.36.48-.7.73-1s.36-.44.54-.64.33-.38.49-.54l.06-.07,0-.08,0-.06,0-.07,0-.07-.08,0-.2.07-.29.25-.47.44-.49.46c-.28.27-.55.55-.81.83l-.76.86-2.63,3-2.28,2.53Zm-3.49.86h0a28.76,28.76,0,0,1-2.94,2.06,3.83,3.83,0,0,1-1.67.6.84.84,0,0,1-.65-.31,1.05,1.05,0,0,1-.28-.74,2.73,2.73,0,0,1,.09-.62,3.18,3.18,0,0,1,.26-.64,6.08,6.08,0,0,1,.46-.82c.18-.27.37-.53.55-.79l.47-.61.43-.55a28.09,28.09,0,0,0-2.51,2,27.13,27.13,0,0,0-2.27,2.28,2.15,2.15,0,0,1-.37.33l-.29.11c-.28,0-.47-.16-.57-.5a7,7,0,0,1-.19-1.77,5.38,5.38,0,0,1,.78-2.83A23.85,23.85,0,0,1,138.68,47l.25-.31.24-.31c.29-.38.58-.74.89-1.09s.62-.7.93-1a23,23,0,0,1,2.46-2.36,3.53,3.53,0,0,1,1.64-1l.13,0,.12,0a1.11,1.11,0,0,1,.37.2.41.41,0,0,1,.17.35,4.17,4.17,0,0,1-1.07,1.94c-.71.93-1.54,1.9-2.49,2.93l-.35.39-.36.38c-.81.89-1.59,1.7-2.33,2.46l-1.61,1.61,0,.82c.26-.19.59-.46,1-.82s.86-.72,1.35-1.11l.38-.3.37-.3a19.81,19.81,0,0,1,1.69-1.16,2.74,2.74,0,0,1,1.31-.49H144a1.16,1.16,0,0,1,.57.36.87.87,0,0,1,.27.6,1.31,1.31,0,0,1-.36.81,10.52,10.52,0,0,1-.8.89h0c-.3.32-.58.62-.83.91a1.33,1.33,0,0,0-.37.8.52.52,0,0,0,.12.38.48.48,0,0,0,.37.12,2.56,2.56,0,0,0,1.07-.31,18.1,18.1,0,0,0,1.74-1.11v.9Zm-9.48,0h0c-.21.19-.45.39-.73.6s-.55.44-.85.67-.53.39-.81.59-.57.36-.84.52a7.26,7.26,0,0,1-1.08.49,2.93,2.93,0,0,1-1,.2,1.27,1.27,0,0,1-1-.38,1.47,1.47,0,0,1-.35-1,4.09,4.09,0,0,1,.23-1.2,10.13,10.13,0,0,1,.67-1.52l-.49.41-.37.28h0l0,0-.22.16-.29.2v-.69l0-.23,1.05-.82c.27-.22.51-.44.7-.63l.24-.24.22-.24c.11-.14.23-.29.35-.46s.25-.35.4-.57h-.62l-.57,0c-.21,0-.49.07-.85.14l.57-.9c.16-.25.32-.48.46-.66a2.46,2.46,0,0,1,1-.78,6,6,0,0,1,1.77-.29c.32-.46.58-.82.79-1.08a2.87,2.87,0,0,1,.61-.57,1.12,1.12,0,0,1,.42-.18,1.9,1.9,0,0,1,.5-.06,1.09,1.09,0,0,1,.54.11.36.36,0,0,1,.17.32.64.64,0,0,1-.12.32l-.25.41-.06.05,0,.06-.2.28-.16.23h.4l.31,0,.26,0,.32,0-.45.77-.27.51c-.08.14-.15.28-.22.39a1.7,1.7,0,0,1-.81.7,5.58,5.58,0,0,1-1.73.18,16,16,0,0,0-1.46,2.28,4.06,4.06,0,0,0-.53,1.66,1.33,1.33,0,0,0,.16.71.56.56,0,0,0,.5.23,2.06,2.06,0,0,0,.81-.21,8.37,8.37,0,0,0,1-.51l.31-.18.31-.19c.25-.19.5-.36.74-.52l.59-.4,0,.23,0,.22v.45Z" style="fill:#36448e"/><path d="M16.61,52.23c3.22-2.34,7.71-2.55,9.77-5.54a3.77,3.77,0,0,1,1.36,2c-2.9,2.3-7.63,3.7-8.85,4.92A3.08,3.08,0,0,1,16.61,52.23Z" style="fill:#ae312b;fill-rule:evenodd"/><path d="M16.61,42.48C19.55,40.31,25,38.13,27.74,36a3.77,3.77,0,0,1,.32,2.2c-2.91,2.3-7.95,4.49-9.17,5.71A3.06,3.06,0,0,1,16.61,42.48Z" style="fill:#ae312b;fill-rule:evenodd"/><path d="M16.61,47.35c3.22-2.33,7.71-2.54,9.77-5.53a3.78,3.78,0,0,1,1.36,2c-2.9,2.31-7.63,3.71-8.85,4.93A3.06,3.06,0,0,1,16.61,47.35Z" style="fill:#ae312b;fill-rule:evenodd"/><path d="M16.61,37.61c.61.89,1.43,1.62,4.09,1.53,1,0,2.9,0,4.61.13s3.77,1.21,3.27,3.41a1.78,1.78,0,0,1-.84,1.17c-.45-1-.72-2.31-2.83-2.43s-4.39,0-6.51-.11S14.52,39.38,16.61,37.61Z" style="fill:#d52627;fill-rule:evenodd"/><path d="M17,57.4c3.19-2.16,7.44-2.94,9.43-5.84a3.77,3.77,0,0,1,1.36,2c-2.9,2.3-7.6,4.22-8.81,5.45a3.11,3.11,0,0,1-2-1A.41.41,0,0,1,17,57.4Z" style="fill:#ae312b;fill-rule:evenodd"/><path d="M16.61,52.23c.61.88,1.43,1.61,4.09,1.52,1,0,2.9,0,4.61.13s3.77,1.21,3.27,3.41a1.82,1.82,0,0,1-.84,1.18c-.45-1-.72-2.32-2.83-2.44s-4.39,0-6.51-.11S14.52,54,16.61,52.23Z" style="fill:#d52627;fill-rule:evenodd"/><path d="M16.61,42.48c.61.9,1.43,1.62,4.09,1.53,1,0,2.9,0,4.61.13s3.77,1.21,3.27,3.41a1.82,1.82,0,0,1-.84,1.18c-.45-1-.72-2.32-2.83-2.43s-4.39,0-6.51-.12S14.52,44.25,16.61,42.48Z" style="fill:#d52627;fill-rule:evenodd"/><path d="M16.61,47.35c.61.9,1.43,1.62,4.09,1.53,1,0,2.9,0,4.61.13s3.77,1.21,3.27,3.42a1.83,1.83,0,0,1-.84,1.17c-.45-1-.72-2.32-2.83-2.44s-4.39,0-6.51-.11-3.88-1.93-1.79-3.7Z" style="fill:#d52627;fill-rule:evenodd"/></svg>