<svg id="Layer_1" data-name="Layer 1" xmlns="http://www.w3.org/2000/svg" width="150" height="100" viewBox="0 0 150 100"><title>Haptik_Logo</title><path d="M43.23,48.59A6.18,6.18,0,0,0,43,50.77a15.26,15.26,0,0,0,1.82,6.32c2.9,5.12,8.72.83,11.82-1.87S65.09,50.58,67.7,52s1.15,3.7-2,5.55A88.41,88.41,0,0,0,56.21,64c-3.51,2.7-5.79,6.24-8.79,9.42a31.88,31.88,0,0,1-7.52,6.12c-3.95,2.19-8.56,4.49-13.08,2.58-3.27-1.38-5.65-4.78-6.83-8-1.72-4.73-4.32-13.89-5.57-17.55S11.05,46.73,7.08,41.1s.42-8.94,3.68-4.41C12,38.45,13,40.27,14.07,42.11s1.91,3.67,3.06,5.36c.95,1.39,1.44,3.34,3.37,2.72,1-.33,1.17-3.79.76-5.24-2-6.86-3.85-18.18-3.8-20.19s2.5-5.53,5-1.71,2.26,9.18,3.36,13.84c.4,1.67.93,3.26,1.23,4.93.14.82.29,2.7,1.28,3,1.53.44,1.09-2.21,1.06-3-.09-2.14.11-4.23.11-6.38,0-3.87.06-7.74.12-11.61a.75.75,0,0,0,0-.15S29,18.08,32,17.22s3.22,6.31,3,9.32.25,10.75,0,13.9S36,45.18,37,45.19c1.94,0,2.54-2.64,2.91-4.11,1.35-5.25,1.31-10.86,3-16,.91-2.73,2.26-4.73,4.23-3.95s2.35,2.95,1,10a93.15,93.15,0,0,1-3.56,14.16c-.44,1.25-1,2.22-1.35,3.33" style="fill:#fff229"/><path d="M65.39,48.1V38.28q0-5.34-3.56-5.34a3.74,3.74,0,0,0-3,1.54,6.22,6.22,0,0,0-1.23,4V48.1H53.5V21.5h4.08V33.11h.08a6.42,6.42,0,0,1,5.82-3.4q6,0,6,7.32V48.1Zm17.06,0V45.28h-.07a5.93,5.93,0,0,1-5.45,3.24,5.74,5.74,0,0,1-4.15-1.45,5,5,0,0,1-1.5-3.8c0-3.39,2-5.37,5.86-5.93l5.34-.76q0-3.84-3.65-3.84A8.69,8.69,0,0,0,73,35V31.39A12.57,12.57,0,0,1,79.6,29.7q6.81,0,6.81,6.7V48.09h-4Zm0-8.82-3.77.52a6,6,0,0,0-2.64.84,2.48,2.48,0,0,0-.89,2.19A2.37,2.37,0,0,0,76,44.7a3.17,3.17,0,0,0,2.18.73,4,4,0,0,0,3.08-1.31,4.61,4.61,0,0,0,1.22-3.29Zm22.44,6.49a7.14,7.14,0,0,1-5.9,2.7,5.9,5.9,0,0,1-5.3-3h-.07V56.36H89.57V30.13h4.07v3.16h.07a6.7,6.7,0,0,1,6.11-3.58,6.44,6.44,0,0,1,5.34,2.41,10.09,10.09,0,0,1,1.91,6.45,11.35,11.35,0,0,1-2.16,7.2m-3.22-11.31A4,4,0,0,0,98.43,33a4.38,4.38,0,0,0-3.5,1.55,5.74,5.74,0,0,0-1.32,3.86V40.6a4.78,4.78,0,0,0,1.25,3.33,4.42,4.42,0,0,0,6.74-.4,8.18,8.18,0,0,0,1.29-4.92,6.47,6.47,0,0,0-1.2-4.15m13.49,10.13a2.4,2.4,0,0,0,1.93.68,2.83,2.83,0,0,0,1.79-.59v3.23a7.15,7.15,0,0,1-3.14.59q-5.24,0-5.23-5V33.33h-3V30.14h3V26l4.07-1.16v5.32h4.3v3.19h-4.3v9a3.54,3.54,0,0,0,.58,2.27m9.24-18.9a2.46,2.46,0,0,1-1.76.67,2.44,2.44,0,0,1-1.71-.65,2.14,2.14,0,0,1-.71-1.65,2.24,2.24,0,0,1,.71-1.67,2.45,2.45,0,0,1,1.71-.66,2.52,2.52,0,0,1,1.76.66,2.19,2.19,0,0,1,.72,1.67,2.16,2.16,0,0,1-.72,1.63m.27,22.41h-4.07v-18h4.07Zm19.82,0h-5.16l-7-8.63h-.07V48.1h-4.09V21.5h4.09V38.36h.07l6.6-8.22h4.89l-7.42,8.67Z" style="fill:#49b9e7"/><path d="M134.84,21.66v2.8h-.54v-2.8h-.93V21.2h2.41v.46ZM139,24.47V22.35a5,5,0,0,1,0-.63h0a1.51,1.51,0,0,1-.09.31l-1,2.44h-.37l-1-2.42c0-.08-.05-.19-.08-.33h0c0,.13,0,.34,0,.64v2.11H136V21.2h.76l.85,2.18c.06.16.11.29.13.37h0a3.86,3.86,0,0,1,.13-.38l.87-2.17h.74v3.27Z" style="fill:#49b9e7"/><path d="M25.8,36.89c-.5-2.14-.73-4.42-1.06-6.63a80.19,80.19,0,0,1-5.29,7.13c.56,2.67,1.18,5.35,1.81,7.56.41,1.45.27,4.91-.76,5.24-1.93.62-2.42-1.33-3.37-2.72s-1.82-3.13-2.7-4.71a50,50,0,0,1-4.2,3.57,72.23,72.23,0,0,1,4.19,10.25c.33,1,.75,2.31,1.23,3.84A84.92,84.92,0,0,0,26.78,40.66C26.48,39.4,26.1,38.17,25.8,36.89Z" style="fill:#f16622"/><path d="M29.5,33.28a123.32,123.32,0,0,0,4-15.68,1.47,1.47,0,0,0-1.5-.38l-.08,0q-1.18,2.5-2.39,4.77a12.81,12.81,0,0,0,0,1.64.75.75,0,0,1,0,.15C29.55,27,29.52,30.13,29.5,33.28Z" style="fill:#f16622"/><path d="M14.42,56.58C15.66,60.2,18.21,69.17,19.93,74,44.34,56.87,45.44,27.33,45.39,21.21a3,3,0,0,0-.73.57c-.65,1.58-1.35,3.09-2.08,4.53-1.33,4.8-1.42,9.94-2.66,14.77-.37,1.47-1,4.13-2.91,4.11-1,0-2.21-1.6-1.95-4.75,0-.68.07-1.58.07-2.59A60.36,60.36,0,0,1,29.39,44c-.1.53-.36.91-.9.83a57.74,57.74,0,0,1-14.77,9.74C14,55.3,14.22,56,14.42,56.58Z" style="fill:#75cdde"/><path d="M60.72,52.7a16,16,0,0,0-4.12,2.52c-2.76,2.41-7.68,6.05-10.77,3.21a43.51,43.51,0,0,1-21.21,22.4,9.88,9.88,0,0,0,2.2,1.32h0C37.47,79.2,53.51,71.66,60.72,52.7Z" style="fill:#d24899"/><path d="M66.07,51.57a9.32,9.32,0,0,0-3,.32c-3.76,8.13-12.69,22-32.14,30a54.87,54.87,0,0,0,7.29-1.41c.58-.3,1.14-.6,1.7-.91a31.88,31.88,0,0,0,7.52-6.12c3-3.18,5.28-6.72,8.79-9.42a89.23,89.23,0,0,1,9.21-6.31A27.24,27.24,0,0,0,66.07,51.57Z" style="fill:#ffcc05"/><path d="M22.28,78.36c4.45-2,16.25-7.93,24.92-19.11a4.42,4.42,0,0,1-2.42-2.16A15.26,15.26,0,0,1,43,50.77a6.18,6.18,0,0,1,.27-2.18c.33-1.11.91-2.08,1.35-3.33A93.15,93.15,0,0,0,48.14,31.1c1.33-6.79,1-9.06-.78-9.89-.76,9.3-5,40.84-27.9,51.39.18.54.36,1.06.53,1.53A16.76,16.76,0,0,0,22.28,78.36Z" style="fill:#cbdb29"/><path d="M19.41,72.46c10.94,3.73,22-11.58,25-16.09-.06-.12-.12-.25-.17-.38C32.63,66.26,23.43,67.44,17.47,66.37,18.13,68.53,18.8,70.67,19.41,72.46Z" style="fill:#0098cc"/><path d="M17.53,66.59c10.24-3.22,15.88-15.9,15.88-15.9a40.33,40.33,0,0,1-17.09,12Z" style="fill:#d24899"/><path d="M14.12,55.69A54.65,54.65,0,0,0,27.58,44.08,8.31,8.31,0,0,1,27,41.82c-.13-.71-.3-1.41-.49-2.1A60.36,60.36,0,0,1,21.47,47c0,1.44-.3,3-1,3.18a1.67,1.67,0,0,1-1.62-.2,55.41,55.41,0,0,1-5.08,4.79Z" style="fill:#ffcc05"/><path d="M35.06,26.54a23.64,23.64,0,0,0-.5-6.95,71.13,71.13,0,0,1-5.07,14.59c0,.42,0,.84,0,1.25,0,2.11-.19,4.17-.11,6.27A34.63,34.63,0,0,0,35,29.1C35,28.09,35,27.19,35.06,26.54Z" style="fill:#ffcc05"/><path d="M9.42,44.83c1.45-.75,3-1.66,4.65-2.71h0c-.48-.82-.94-1.63-1.41-2.43a47.41,47.41,0,0,1-4,3.84C8.92,44,9.17,44.4,9.42,44.83Z" style="fill:#75cdde"/><path d="M22.93,23.88a59.72,59.72,0,0,1-4.47,8.31c.31,1.78.68,3.71,1.08,5.63a23.77,23.77,0,0,0,5.27-7A21.26,21.26,0,0,0,22.93,23.88Z" style="fill:#75cdde"/><path d="M12.62,39.61a34.07,34.07,0,0,0-1.86-2.92,5.34,5.34,0,0,0-2.28-1.92,18.85,18.85,0,0,1-2.75,1,4.94,4.94,0,0,0,.61,4.1A12.19,12.19,0,0,0,12.62,39.61Z" style="fill:#0098cc"/><path d="M22.44,23.05a4.57,4.57,0,0,0-1.16-1.27,38.42,38.42,0,0,1-3.59,5.45c.24,1.9.68,4.58,1.23,7.46a31.44,31.44,0,0,0,4.42-9.93A10,10,0,0,0,22.44,23.05Z" style="fill:#0098cc"/><path d="M31.05,48.86a8,8,0,0,0,6.14-3.68H37a1.75,1.75,0,0,1-1.41-1.11A16,16,0,0,1,31.05,48.86Z" style="fill:#f16622"/></svg>