<svg id="Layer_1" data-name="Layer 1" xmlns="http://www.w3.org/2000/svg" xmlns:xlink="http://www.w3.org/1999/xlink" width="150" height="100" viewBox="0 0 150 100"><defs><clipPath id="clip-path"><path d="M83.06,19.44a.12.12,0,0,0-.12.13l2.3,48.72a0,0,0,0,1,0,0A.9.9,0,1,0,87,68.16l-3.85-48.6a.12.12,0,0,0-.13-.12h0" style="fill:#f3ea08"/></clipPath><clipPath id="clip-path-2"><path d="M82.62,21l.07,40.83v0a.54.54,0,0,0,1.07,0L82.86,21a.11.11,0,0,0-.12-.11.12.12,0,0,0-.12.12" style="fill:#f3ea08"/></clipPath><clipPath id="clip-path-3"><path d="M54.3,29.24a.05.05,0,0,0,0,0l38.85,9h0a.43.43,0,1,0,.17-.85l-39-8.21h0s0,0,0,0" style="fill:#f3ea08"/></clipPath><clipPath id="clip-path-4"><path d="M54.12,29.42a.12.12,0,0,0,.08.15L97.57,44l.11,0a1.72,1.72,0,1,0,.86-3.34L54.26,29.34h0a.13.13,0,0,0-.11.08" style="fill:#f3ea08"/></clipPath><clipPath id="clip-path-5"><path d="M82.12,15.56,52.27,56.23a.06.06,0,0,0,0,.08.06.06,0,0,0,.08,0L83.29,16.41v0a.72.72,0,0,0-.17-1,.75.75,0,0,0-.42-.14.73.73,0,0,0-.59.31" style="fill:#f3ea08"/></clipPath><clipPath id="clip-path-6"><path d="M79,17.34,53.23,54.63a0,0,0,0,0,0,0h0L79.72,17.83h0a.42.42,0,0,0-.11-.6.44.44,0,0,0-.24-.07.44.44,0,0,0-.36.19" style="fill:#f3ea08"/></clipPath><clipPath id="clip-path-7"><path d="M79.32,22.74,55.49,52.51a0,0,0,0,0,0,.07.06.06,0,0,0,.07,0l24.6-29.15h0a.54.54,0,0,0-.08-.76.56.56,0,0,0-.76.09" style="fill:#f3ea08"/></clipPath><clipPath id="clip-path-8"><path d="M56.57,35.68a.55.55,0,0,0-.06.76l24.42,28.8a.16.16,0,0,0,.24,0,.17.17,0,0,0,0-.25L57.34,35.75h0a.53.53,0,0,0-.41-.19.55.55,0,0,0-.36.13" style="fill:#f3ea08"/></clipPath><clipPath id="clip-path-9"><path d="M53.61,28.26a1,1,0,0,0-.14,1.36L83.79,66.93A.17.17,0,0,0,84,67a.15.15,0,0,0,0-.21L55,28.43l0,0a1,1,0,0,0-1.36-.14" style="fill:#f3ea08"/></clipPath><clipPath id="clip-path-10"><path d="M77.75,46.58,52,58.17s0,0,0,0,0,0,0,0l26-11h0a.36.36,0,0,0-.15-.69.4.4,0,0,0-.15,0" style="fill:#f3ea08"/></clipPath><clipPath id="clip-path-11"><path d="M96.77,40.61,50.23,59.07a.06.06,0,0,0,0,.07.07.07,0,0,0,.08,0L98.06,44.26l.14,0a1.94,1.94,0,0,0-.71-3.74,1.84,1.84,0,0,0-.72.14" style="fill:#f3ea08"/></clipPath></defs><title>Hotstar_Logo</title><rect x="30" y="5" width="90" height="90" style="fill:#0d2435"/><path d="M83.06,19.44a.12.12,0,0,0-.12.13l2.3,48.72a0,0,0,0,1,0,0A.9.9,0,1,0,87,68.16l-3.85-48.6a.12.12,0,0,0-.13-.12h0" style="fill:#f3ea08"/><g style="clip-path:url(#clip-path)"><polygon points="87.07 19.2 89.94 69.01 82.95 69.42 80.08 19.61 87.07 19.2" style="fill:#f3ea08"/></g><path d="M82.62,21l.07,40.83v0a.54.54,0,0,0,1.07,0L82.86,21a.11.11,0,0,0-.12-.11.12.12,0,0,0-.12.12" style="fill:#f3ea08"/><g style="clip-path:url(#clip-path-2)"><polygon points="83.77 20.89 84.59 62.4 82.62 62.44 81.8 20.93 83.77 20.89" style="fill:#f3ea08"/></g><path d="M54.3,29.24a.05.05,0,0,0,0,0l38.85,9h0a.43.43,0,1,0,.17-.85l-39-8.21h0s0,0,0,0" style="fill:#f3ea08"/><g style="clip-path:url(#clip-path-3)"><rect x="54.3" y="29.21" width="39.44" height="9.11" style="fill:#f3ea08"/></g><path d="M54.12,29.42a.12.12,0,0,0,.08.15L97.57,44l.11,0a1.72,1.72,0,1,0,.86-3.34L54.26,29.34h0a.13.13,0,0,0-.11.08" style="fill:#f3ea08"/><g style="clip-path:url(#clip-path-4)"><polygon points="57.56 17.22 103.95 30.46 96.56 56.33 50.18 43.1 57.56 17.22" style="fill:#f3ea08"/></g><path d="M82.12,15.56,52.27,56.23a.06.06,0,0,0,0,.08.06.06,0,0,0,.08,0L83.29,16.41v0a.72.72,0,0,0-.17-1,.75.75,0,0,0-.42-.14.73.73,0,0,0-.59.31" style="fill:#f3ea08"/><g style="clip-path:url(#clip-path-5)"><polygon points="32.56 41.65 63.43 0.26 103.22 29.94 72.35 71.32 32.56 41.65" style="fill:#f3ea08"/></g><path d="M79,17.34,53.23,54.63a0,0,0,0,0,0,0h0L79.72,17.83h0a.42.42,0,0,0-.11-.6.44.44,0,0,0-.24-.07.44.44,0,0,0-.36.19" style="fill:#f3ea08"/><g style="clip-path:url(#clip-path-6)"><polygon points="35.63 42.41 61.93 4.66 97.45 29.4 71.16 67.15 35.63 42.41" style="fill:#f3ea08"/></g><path d="M79.32,22.74,55.49,52.51a0,0,0,0,0,0,.07.06.06,0,0,0,.07,0l24.6-29.15h0a.54.54,0,0,0-.08-.76.56.56,0,0,0-.76.09" style="fill:#f3ea08"/><g style="clip-path:url(#clip-path-7)"><polygon points="40.73 40.47 65.51 10.33 95.1 34.66 70.32 64.8 40.73 40.47" style="fill:#f3ea08"/></g><path d="M56.57,35.68a.55.55,0,0,0-.06.76l24.42,28.8a.16.16,0,0,0,.24,0,.17.17,0,0,0,0-.25L57.34,35.75h0a.53.53,0,0,0-.41-.19.55.55,0,0,0-.36.13" style="fill:#f3ea08"/><g style="clip-path:url(#clip-path-8)"><polygon points="66.59 77.6 41.66 47.81 71 23.27 95.92 53.07 66.59 77.6" style="fill:#f3ea08"/></g><path d="M53.61,28.26a1,1,0,0,0-.14,1.36L83.79,66.93A.17.17,0,0,0,84,67a.15.15,0,0,0,0-.21L55,28.43l0,0a1,1,0,0,0-1.36-.14" style="fill:#f3ea08"/><g style="clip-path:url(#clip-path-9)"><polygon points="64.91 82.03 34.21 42.87 72.3 13.01 103.01 52.17 64.91 82.03" style="fill:#f3ea08"/></g><path d="M77.75,46.58,52,58.17s0,0,0,0,0,0,0,0l26-11h0a.36.36,0,0,0-.15-.69.4.4,0,0,0-.15,0" style="fill:#f3ea08"/><g style="clip-path:url(#clip-path-10)"><rect x="51.99" y="46.55" width="26.32" height="11.68" style="fill:#f3ea08"/></g><path d="M96.77,40.61,50.23,59.07a.06.06,0,0,0,0,.07.07.07,0,0,0,.08,0L98.06,44.26l.14,0a1.94,1.94,0,0,0-.71-3.74,1.84,1.84,0,0,0-.72.14" style="fill:#f3ea08"/><g style="clip-path:url(#clip-path-11)"><polygon points="44.36 42.5 94.32 25.08 105.51 57.16 55.55 74.58 44.36 42.5" style="fill:#f3ea08"/></g><path d="M55.54,84.6H57.9V79.27A3.64,3.64,0,0,0,57.68,78a2.69,2.69,0,0,0-.62-1,2.93,2.93,0,0,0-1-.63,4,4,0,0,0-1.39-.22,2.86,2.86,0,0,0-2.11.76V73.59l-2.38.83V84.6h2.38V79a1.21,1.21,0,0,1,.54-.65,1.74,1.74,0,0,1,.93-.24,1.53,1.53,0,0,1,1.17.39,1.36,1.36,0,0,1,.36,1Z" style="fill:#fff"/><path d="M64.71,84.41A3.76,3.76,0,0,0,66,83.5a4.29,4.29,0,0,0,.85-1.36,4.69,4.69,0,0,0,.3-1.69,4.64,4.64,0,0,0-.3-1.68A4.41,4.41,0,0,0,66,77.41a4,4,0,0,0-1.32-.91,4.6,4.6,0,0,0-3.42,0,4,4,0,0,0-1.32.91,4.23,4.23,0,0,0-.85,1.36,4.64,4.64,0,0,0-.3,1.68,4.69,4.69,0,0,0,.3,1.69A4.12,4.12,0,0,0,60,83.5a3.76,3.76,0,0,0,1.32.91,4.47,4.47,0,0,0,3.42,0m-3.07-2.28a2.74,2.74,0,0,1-.48-1.68,2.69,2.69,0,0,1,.48-1.67,1.76,1.76,0,0,1,2.72,0,2.69,2.69,0,0,1,.48,1.67,2.74,2.74,0,0,1-.48,1.68,1.75,1.75,0,0,1-2.72,0" style="fill:#fff"/><path d="M72.91,82.45a2.08,2.08,0,0,1-.58.28,2,2,0,0,1-.63.11,1.16,1.16,0,0,1-.67-.17.63.63,0,0,1-.24-.57V78.2h1.77V76.32H70.79V74l-2.34.82v1.54h-1V78.2h1v4.15a2.35,2.35,0,0,0,.66,1.74,2.52,2.52,0,0,0,1.88.66,5.19,5.19,0,0,0,1-.08,2.38,2.38,0,0,0,.54-.16Z" style="fill:#fff"/><path d="M73,84a5,5,0,0,0,1.62.59,7.87,7.87,0,0,0,3.16,0A4.27,4.27,0,0,0,79,84.13a2.34,2.34,0,0,0,.85-.83A2.45,2.45,0,0,0,80.21,82a2.11,2.11,0,0,0-.55-1.53,3.38,3.38,0,0,0-1.48-.85,7.17,7.17,0,0,0-.84-.18c-.31,0-.61-.11-.88-.18a3.9,3.9,0,0,1-.71-.24c-.2-.1-.3-.22-.3-.38a.41.41,0,0,1,.26-.36,2.21,2.21,0,0,1,1-.15,4.54,4.54,0,0,1,1.18.15,6.54,6.54,0,0,1,1.19.49l.69-1.85a5.65,5.65,0,0,0-2.88-.73,7.52,7.52,0,0,0-1.54.15,3.47,3.47,0,0,0-1.21.45,2.24,2.24,0,0,0-.8.79,2.12,2.12,0,0,0-.3,1.15,1.82,1.82,0,0,0,.26,1,2,2,0,0,0,.74.67,4.74,4.74,0,0,0,1.15.47c.46.13,1,.25,1.52.37a2.81,2.81,0,0,1,.88.31.52.52,0,0,1,.28.46.68.68,0,0,1-.39.59,2.65,2.65,0,0,1-1.27.23,5.26,5.26,0,0,1-1.42-.18,4.44,4.44,0,0,1-1-.39Z" style="fill:#fff"/><path d="M85.62,82.45a2.08,2.08,0,0,1-.58.28,2,2,0,0,1-.63.11,1.16,1.16,0,0,1-.67-.17.63.63,0,0,1-.24-.57V78.2h1.77V76.32H83.5V74l-2.33.82v1.54H80.11V78.2h1.06v4.15a2.35,2.35,0,0,0,.65,1.74,2.53,2.53,0,0,0,1.89.66,5.08,5.08,0,0,0,1-.08,2.38,2.38,0,0,0,.54-.16Z" style="fill:#fff"/><path d="M91,82.21a2,2,0,0,1-1.48.54,2,2,0,0,1-1.07-.29.88.88,0,0,1-.45-.78c0-.75.57-1.13,1.73-1.13a1.92,1.92,0,0,1,.77.15A1.08,1.08,0,0,1,91,81v1.17Zm0,2.39h2.35V79.31a3.24,3.24,0,0,0-.26-1.3,2.74,2.74,0,0,0-.76-1,3.46,3.46,0,0,0-1.19-.63,5,5,0,0,0-1.54-.22,5.06,5.06,0,0,0-1.68.27,4.16,4.16,0,0,0-1.31.75l1.07,1.47a3.55,3.55,0,0,1,.79-.42,2.61,2.61,0,0,1,1-.16,2,2,0,0,1,1.07.24,1.3,1.3,0,0,1,.49.84,2.22,2.22,0,0,0-.81-.27,5.54,5.54,0,0,0-.9-.07,4.42,4.42,0,0,0-2.67.73,2.49,2.49,0,0,0-1,2.18A3,3,0,0,0,85.84,83a2.91,2.91,0,0,0,.72.94,3.19,3.19,0,0,0,1.06.61,3.9,3.9,0,0,0,1.3.22,3.76,3.76,0,0,0,1.19-.18,2.76,2.76,0,0,0,.86-.43v.46Z" style="fill:#fff"/><path d="M99.81,76.57a1.54,1.54,0,0,0-.6-.3,2.39,2.39,0,0,0-.71-.1,2,2,0,0,0-1.53.58v-.43H94.6V84.6H97V79a1.13,1.13,0,0,1,.36-.66,1.25,1.25,0,0,1,.82-.24,2.11,2.11,0,0,1,.55.07,1.46,1.46,0,0,1,.37.2Z" style="fill:#fff"/></svg>