<svg id="Layer_1" data-name="Layer 1" xmlns="http://www.w3.org/2000/svg" width="200" height="100" viewBox="0 0 200 100"><title>Innovaccer_Logo</title><path d="M55.84,44.09c-1.51,0-4.05,1-4.6,3.22V44.49H46.17V60.33h5.07v-8C51.24,49.72,53,49,54.33,49s2.78.92,2.78,3.36v8h5.08V51.8C62.19,46.94,60.1,44.08,55.84,44.09Z"/><path d="M73.86,44.09c-1.51,0-4,1-4.6,3.22V44.49H64.18V60.33h5.08v-8C69.26,49.72,71,49,72.35,49s2.78.92,2.78,3.36v8h5.08V51.8C80.21,46.94,78.11,44.08,73.86,44.09Z"/><path d="M90,44.08c-4.56,0-8.68,3.27-8.68,8.3s4.14,8.25,8.7,8.25,8.72-3.21,8.72-8.25S94.52,44.08,90,44.08Zm3.53,8.3A3.53,3.53,0,1,1,90,48.74a3.48,3.48,0,0,1,3.54,3.64Z"/><rect x="38.89" y="44.49" width="5.08" height="15.84"/><path d="M173.16,44.08c-4.6,0-8.65,3.21-8.65,8.36,0,4.83,3.6,8.19,8.65,8.19a9.81,9.81,0,0,0,7-2.65l-2.6-3.26a6.11,6.11,0,0,1-4.05,1.53,3.58,3.58,0,0,1-3.74-2.38h11.72a16.37,16.37,0,0,0,.08-1.8C181.6,47.24,177.75,44.08,173.16,44.08Zm3.38,6.83h-6.76a3.34,3.34,0,0,1,3.5-2.57c1.82,0,3.23,1,3.26,2.57Z"/><path d="M41.43,36.23a3,3,0,0,0-3.16,2.92h0a3.07,3.07,0,0,0,3.16,2.92,3,3,0,0,0,3.09-2.92A3,3,0,0,0,43.6,37,3,3,0,0,0,41.43,36.23Z"/><polygon points="115.42 44.49 109.9 44.49 106.43 53.9 102.93 44.49 97.4 44.49 104.19 60.33 108.62 60.33 115.42 44.49 115.42 44.49"/><path d="M157.77,56a3.62,3.62,0,1,1,0-7.24,3.88,3.88,0,0,1,3.06,1.53l3.9-2.45a8.26,8.26,0,0,0-7-3.74c-4.66,0-8.82,3.23-8.82,8.26s4.16,8.29,8.82,8.29a8.2,8.2,0,0,0,7-3.74l-3.9-2.44A3.94,3.94,0,0,1,157.77,56Z"/><path d="M142.16,56a3.62,3.62,0,1,1,0-7.24,3.85,3.85,0,0,1,3.05,1.53l3.91-2.45a8.29,8.29,0,0,0-7-3.74c-4.67,0-8.82,3.23-8.82,8.26h0c0,5,4.15,8.29,8.82,8.29a8.23,8.23,0,0,0,7-3.74l-3.91-2.44A3.92,3.92,0,0,1,142.16,56Z"/><path d="M195,44.55a5.36,5.36,0,0,0-2.4-.47,5.05,5.05,0,0,0-4.81,3.74V44.49h-5V60.33h5.08V55.06c0-4.69,1.65-6.32,3.64-6.32a4.63,4.63,0,0,1,2.3.61l1.2-4.79Z"/><path d="M127,46.22a6.49,6.49,0,0,0-5-2.11c-4,0-7.75,3.14-7.75,8.27A7.84,7.84,0,0,0,122,60.63a6.53,6.53,0,0,0,5-2.1v1.8h5V44.49h-5Zm-3.87,9.72a3.68,3.68,0,0,1-3.43-2.26,3.61,3.61,0,0,1,.82-4,3.72,3.72,0,0,1,4.06-.74,3.64,3.64,0,0,1-1.45,7Z"/><path d="M13.19,53.34l-7,10.43a1.35,1.35,0,0,0-.06,1.41,1.37,1.37,0,0,0,1.22.72H21.31a1.38,1.38,0,0,0,1.23-.72,1.35,1.35,0,0,0-.07-1.41L15.52,53.33a1.43,1.43,0,0,0-1.17-.61,1.38,1.38,0,0,0-1.16.62Z" style="fill:#e81f76;fill-rule:evenodd"/><path d="M13.19,46.67l-7-10.44a1.35,1.35,0,0,1-.06-1.41,1.37,1.37,0,0,1,1.22-.72H21.31a1.37,1.37,0,0,1,1.17,2.13l-7,10.44a1.4,1.4,0,0,1-2.33,0Z" style="fill:#e81f76;fill-rule:evenodd;opacity:0.200000002980232;isolation:isolate"/><path d="M23.39,37l-7,10.43a1.37,1.37,0,0,0-.07,1.41,1.41,1.41,0,0,0,1.23.73H31.51a1.41,1.41,0,0,0,1.23-.73,1.37,1.37,0,0,0-.07-1.41L25.71,37a1.4,1.4,0,0,0-2.32,0Z" style="fill:#e81f76;fill-rule:evenodd;opacity:0.400000005960465;isolation:isolate"/><path d="M25.71,63.17l7-10.43a1.39,1.39,0,0,0-1.16-2.15H17.59a1.41,1.41,0,0,0-1.23.73,1.39,1.39,0,0,0,.07,1.42l7,10.43a1.4,1.4,0,0,0,2.32,0Z" style="fill:#e81f76;fill-rule:evenodd;opacity:0.699999988079071;isolation:isolate"/></svg>