<svg id="Layer_1" data-name="Layer 1" xmlns="http://www.w3.org/2000/svg" width="150" height="100" viewBox="0 0 150 100"><title>Oyo_Logo</title><polygon points="82.32 26.66 75.02 41.15 67.67 26.66 50.48 26.66 66.53 58.43 66.53 73.38 83.47 73.38 83.47 58.43 99.52 26.66 82.32 26.66" style="fill:#e5402b;fill-rule:evenodd"/><path d="M120.11,26.12A23.88,23.88,0,1,0,144,50,23.88,23.88,0,0,0,120.11,26.12Zm0,32.38A8.51,8.51,0,1,1,128.63,50,8.49,8.49,0,0,1,120.11,58.5Z" style="fill:#e5402b;fill-rule:evenodd"/><path d="M29.89,26.12A23.88,23.88,0,1,0,53.79,50,23.89,23.89,0,0,0,29.89,26.12Zm0,32.38A8.51,8.51,0,1,1,38.42,50,8.49,8.49,0,0,1,29.89,58.5Z" style="fill:#e5402b;fill-rule:evenodd"/></svg>