<svg xmlns="http://www.w3.org/2000/svg" xmlns:xlink="http://www.w3.org/1999/xlink" width="150" height="100" viewBox="0 0 150 100"><defs><linearGradient id="New_Gradient_Swatch_5" x1="47.77" y1="43.69" x2="47.77" y2="95.99" gradientUnits="userSpaceOnUse"><stop offset="0" stop-color="#bbce00"/><stop offset="1" stop-color="#428e29"/></linearGradient><linearGradient id="New_Gradient_Swatch_5-2" x1="111.11" y1="41.3" x2="111.11" y2="82.04" xlink:href="#New_Gradient_Swatch_5"/></defs><title>PayU_Logo</title><g style="isolation:isolate"><g id="Layer_1" data-name="Layer 1"><path d="M22,32.85H13.19c-4.72,0-6.83,2.1-6.83,6.82V70c0,1.83.59,2.41,2.41,2.41h.6c1.82,0,2.41-.58,2.41-2.41V58.19H22c9.09,0,13.33-4,13.33-12.67S31.11,32.85,22,32.85Zm7.91,12.67c0,4.94-1.26,7.61-7.91,7.61H11.78V40.39c0-1.77.65-2.43,2.42-2.43H22C27,38,29.93,39.2,29.93,45.52Zm16.79-4a32.22,32.22,0,0,0-6.52.6c-1.48.32-2.09.73-2.09,2.4V45a2.58,2.58,0,0,0,.3,1.43,1.28,1.28,0,0,0,1.16.56,3.81,3.81,0,0,0,.92-.13A32.05,32.05,0,0,1,47,46.24c5.28,0,7.44,1.46,7.44,5v3.2H47.74c-8.57,0-12.56,2.89-12.56,9.09,0,6,4.12,9.33,11.6,9.33,8.89,0,12.85-3,12.85-9.81V51.29C59.63,44.73,55.41,41.54,46.72,41.54ZM54.4,58.77v4.15c0,3.39-1.26,5.35-7.68,5.35-4.24,0-6.3-1.53-6.3-4.69,0-3.46,2.07-4.81,7.38-4.81ZM89,44.85,82.18,72.3c-2,8-5.45,11.51-11.87,11.93l-.47,0c-1.38,0-1.82-.76-2.08-2l-.11-.53a2,2,0,0,1,.13-1.63c.32-.42.89-.55,1.76-.62,4.29-.44,5.75-2.43,7.18-6.93a7.44,7.44,0,0,1-2.37.35c-4.72,0-6-3.29-7-7.26L61.63,44.86a2.26,2.26,0,0,1,0-1.9,2.22,2.22,0,0,1,1.81-.55H64c1.78,0,2.46.53,2.93,2.25l5.61,20.59c.72,2.57,1.45,3,3.27,3,1.49,0,2.36-.46,3-3l5-20.59c.39-1.71,1.09-2.26,2.87-2.26h.54a2.24,2.24,0,0,1,1.8.54A2.28,2.28,0,0,1,89,44.85Z" style="fill:url(#New_Gradient_Swatch_5)"/><rect x="135.17" y="21.56" width="8.47" height="8.55" rx="1.2" style="fill:#bbce00"/><rect x="129.41" y="15.75" width="5.75" height="5.8" rx="0.81" style="fill:#bbce00"/><path d="M133.55,30.1h-8.18a1.61,1.61,0,0,0-1.61,1.61v1.14h.56c3.7,0,5.07.61,5.07,4v4.78h4.15A1.61,1.61,0,0,0,135.16,40V31.72A1.61,1.61,0,0,0,133.55,30.1Z" style="fill:#bbce00;mix-blend-mode:multiply"/><path d="M125.37,41.6A1.62,1.62,0,0,1,123.75,40V32.85h-.6c-3.69,0-5.06.61-5.06,4v7.86a.43.43,0,0,1,0,.05v12.9a5.91,5.91,0,0,1-.79,3.24c-1,1.56-3,2.26-6.19,2.27s-5.18-.71-6.19-2.26a5.93,5.93,0,0,1-.79-3.25v-11c0-.06,0-.12,0-.18V36.83c0-3.37-1.37-4-5.07-4H97.89c-3.69,0-5.06.61-5.06,4V57.64A15.45,15.45,0,0,0,95,66.11c2.82,4.43,8.28,6.79,16,6.79h.06c7.76,0,13.22-2.36,16-6.79a15.45,15.45,0,0,0,2.22-8.47v-16Z" style="fill:url(#New_Gradient_Swatch_5-2)"/><path d="M124.32,32.85h-.56V40a1.62,1.62,0,0,0,1.62,1.61h4V36.83C129.39,33.46,128,32.85,124.32,32.85Z" style="fill:#809840"/></g></g></svg>