<svg id="Layer_1" data-name="Layer 1" xmlns="http://www.w3.org/2000/svg" width="200" height="100" viewBox="0 0 200 100"><title>TataMotors_Logo</title><path d="M121.64,40.06a8.41,8.41,0,0,0-5.23,2.37,10.54,10.54,0,0,0-2.89,7.76,10.13,10.13,0,0,0,3.07,7.74,8.63,8.63,0,0,0,7,2,8.21,8.21,0,0,0,5.69-3.15,11,11,0,0,0,2-6.93A10,10,0,0,0,128.16,42,8.72,8.72,0,0,0,121.64,40.06Zm4,14.69a3.74,3.74,0,0,1-3.31,1.76,3.81,3.81,0,0,1-3.22-1.81,8.69,8.69,0,0,1-1.24-4.7A8.87,8.87,0,0,1,119,45.43a4,4,0,0,1,2.47-1.86,3.79,3.79,0,0,1,3.35.82,6.77,6.77,0,0,1,1.94,4.32A9.52,9.52,0,0,1,125.64,54.75Z" style="fill:#1467b3"/><path d="M161.35,42a8.74,8.74,0,0,0-6.51-1.93,8.43,8.43,0,0,0-5.23,2.38,10.6,10.6,0,0,0-2.89,7.75,10.19,10.19,0,0,0,3.07,7.74,8.64,8.64,0,0,0,7,2,8.25,8.25,0,0,0,5.67-3.14,11,11,0,0,0,2-6.94A10,10,0,0,0,161.35,42Zm-2.43,12.65a3.77,3.77,0,0,1-3.39,1.87,3.83,3.83,0,0,1-3.22-1.82A8.65,8.65,0,0,1,151.08,50a8.83,8.83,0,0,1,1.16-4.56,4.07,4.07,0,0,1,2.47-1.87,3.81,3.81,0,0,1,3.26.73,6.64,6.64,0,0,1,2,4.23A9.72,9.72,0,0,1,158.92,54.64Z" style="fill:#1467b3"/><path d="M195.11,51.84a5.69,5.69,0,0,0-2.3-2.62c-1.49-1-3.29-1.32-4.76-2.33a1.68,1.68,0,0,1-.76-1.63,2,2,0,0,1,1.82-1.62,8.38,8.38,0,0,1,4.72.82c.27-1.17.62-2.32.93-3.49a11.51,11.51,0,0,0-6.73-.75,6.43,6.43,0,0,0-4,2.34,5.52,5.52,0,0,0-.81,4.82A6.32,6.32,0,0,0,186.69,51c1.31.71,2.89.94,4,2a1.92,1.92,0,0,1,.12,2.55,3.38,3.38,0,0,1-2.42.91,10.56,10.56,0,0,1-4.76-1.23c-.28,1.2-.57,2.4-.85,3.6a12.42,12.42,0,0,0,6,1.16,7.86,7.86,0,0,0,5.12-2A5.82,5.82,0,0,0,195.11,51.84Z" style="fill:#1467b3"/><path d="M23.49,40.18h-19c0,1.92,0,3.83,0,5.75,1.88,0,3.75,0,5.63,0,.16,1.05-.06,2.13,0,3.19,0,3.56,0,7.12,0,10.68h7.9q0-6.93,0-13.86H23.5C23.48,44,23.5,42.09,23.49,40.18Z" style="fill:#1467b3"/><path d="M36.87,40.17c-2.64,0-5.29-.06-7.93.06-2.43,6.53-4.93,13-7.42,19.55,2.54,0,5.07,0,7.61,0,1.33-3.87,2.61-7.76,4-11.61,1.39,3.87,2.68,7.77,4.06,11.64,2.56,0,5.12,0,7.68,0-2.54-6.43-5-12.89-7.55-19.33A.38.38,0,0,0,36.87,40.17Z" style="fill:#1467b3"/><path d="M62,45.92c0-1.9,0-3.8,0-5.71-.95-.07-1.89,0-2.84,0H43.06c0,1.92,0,3.84,0,5.75,1.88,0,3.76,0,5.63,0,0,4.62,0,9.24,0,13.86h7.89c0-4.62,0-9.24,0-13.87Z" style="fill:#1467b3"/><path d="M71.34,40.18c-1.29,0-2.58-.1-3.86.06Q63.81,50,60.05,59.78c2.54,0,5.08,0,7.62,0,1.26-3.83,2.63-7.61,3.87-11.44.26.06.31.32.39.53,1.24,3.64,2.53,7.27,3.77,10.91h7.7Q79.56,50,75.79,40.24C74.31,40.1,72.82,40.21,71.34,40.18Z" style="fill:#1467b3"/><path d="M177.34,50.47a5.28,5.28,0,0,0,2-1.36,5.2,5.2,0,0,0-.54-7.47,8.78,8.78,0,0,0-5.27-1.43,36.12,36.12,0,0,0-6.15.4c0,6.33,0,12.66,0,19h4.16c0-2.54,0-5.08,0-7.63,1,0,2.13-.13,3,.48a4,4,0,0,1,1.23,2.41A41.91,41.91,0,0,0,177,59.58c1.45.06,2.9,0,4.35,0-.83-2.18-1.1-4.52-1.88-6.7A4.38,4.38,0,0,0,177.34,50.47Zm-2.08-2.14c-1.12.7-2.49.48-3.74.53-.06-1.76,0-3.52,0-5.28,1.29-.11,2.73-.33,3.9.37A2.66,2.66,0,0,1,175.26,48.33Z" style="fill:#1467b3"/><path d="M104.68,40.39c-1.28,4.16-2.62,8.3-3.55,12.55a1.55,1.55,0,0,1-.27.75c-.79-4.51-2.18-8.88-3.38-13.29-1.87,0-3.75,0-5.62,0-.34,6.4-.78,12.81-1.16,19.22h3.89c.22-5.1.53-10.2.64-15.31a19,19,0,0,1,.46,2.09c.87,4.37,2.16,8.63,3.25,12.93h3.28c1.49-5,3.07-10,4.39-15,0,1.1.08,2.2,0,3.3,0,4,.31,8,.42,12h4.07c-.28-6.4-.68-12.8-1-19.21Z" style="fill:#1467b3"/><path d="M131.84,40.39c0,1.22,0,2.44,0,3.65h5V59.6H141c0-5.19,0-10.38,0-15.57,1.67,0,3.35,0,5,0,0-1.21,0-2.42,0-3.63Z" style="fill:#1467b3"/></svg>