<svg id="Layer_1" data-name="Layer 1" xmlns="http://www.w3.org/2000/svg" width="150" height="100" viewBox="0 0 150 100"><title>Wipro_Logo</title><path d="M84.47,95.54a3.14,3.14,0,1,0-3.12-3.12A3.13,3.13,0,0,0,84.47,95.54Z" style="fill:#e86043"/><path d="M73.87,30.41a1.29,1.29,0,0,0-.64.19,1.21,1.21,0,0,0-.46,1.71,1.24,1.24,0,0,0,1.72.45,1.31,1.31,0,0,0,.45-1.71A1.27,1.27,0,0,0,73.87,30.41Z" style="fill:#33bb87"/><path d="M84.47,37a.9.9,0,0,0,.94-.89.92.92,0,0,0-.94-1,.92.92,0,1,0,0,1.84Z" style="fill:#4d94bd"/><path d="M83,71.21a1.42,1.42,0,0,0,1.44,1.44,1.46,1.46,0,0,0,1.49-1.44,1.5,1.5,0,0,0-1.49-1.5A1.47,1.47,0,0,0,83,71.21Z" style="fill:#e86043"/><path d="M84.47,64.89a.9.9,0,0,0,.94-.89.92.92,0,0,0-.94-1,.92.92,0,1,0,0,1.84Z" style="fill:#e86043"/><path d="M81.66,63.67a.86.86,0,0,0-.64-1s-.12,0-.18,0a.78.78,0,0,0-.8.62.85.85,0,0,0,.58,1A.91.91,0,0,0,81.66,63.67Z" style="fill:#f1760d"/><path d="M77.11,62.68a.69.69,0,0,0,1-.27.73.73,0,0,0-.27-1,1.12,1.12,0,0,0-.36-.09.69.69,0,0,0-.62.36A.67.67,0,0,0,77.11,62.68Z" style="fill:#f99800"/><path d="M78.37,79.93a1.82,1.82,0,0,0-1.32-2.29,2.72,2.72,0,0,0-.49-.09A1.89,1.89,0,0,0,74.72,79a1.91,1.91,0,0,0,1.35,2.29A1.87,1.87,0,0,0,78.37,79.93Z" style="fill:#f1760d"/><path d="M77.82,38.57a.73.73,0,0,0,.27-1,.7.7,0,0,0-.63-.4.48.48,0,0,0-.35.13.68.68,0,0,0-.27,1A.71.71,0,0,0,77.82,38.57Z" style="fill:#33bb87"/><path d="M80.28,70.79a1.36,1.36,0,0,0-1-1.68,1.42,1.42,0,0,0-.36,0,1.39,1.39,0,0,0-1.31,1,1.3,1.3,0,0,0,.94,1.62A1.34,1.34,0,0,0,80.28,70.79Z" style="fill:#f1760d"/><path d="M84.45,27.37A1.41,1.41,0,0,0,83,28.81a1.46,1.46,0,0,0,1.44,1.49,1.49,1.49,0,0,0,1.49-1.49A1.45,1.45,0,0,0,84.45,27.37Z" style="fill:#4d94bd"/><path d="M93,81.7a2.36,2.36,0,0,0,1.62-2.84,2.3,2.3,0,0,0-2.2-1.72,3.84,3.84,0,0,0-.64.1,2.32,2.32,0,0,0-1.62,2.84A2.36,2.36,0,0,0,93,81.7Z" style="fill:#e0485d"/><path d="M86.58,19.52a2.12,2.12,0,0,0-2.11-2.11,2.1,2.1,0,0,0,0,4.19A2.11,2.11,0,0,0,86.58,19.52Z" style="fill:#4d94bd"/><path d="M95.1,66.69a1.9,1.9,0,0,0-.87.24,1.66,1.66,0,0,0,1.67,2.88,1.71,1.71,0,0,0,.64-2.3A1.73,1.73,0,0,0,95.1,66.69Z" style="fill:#b3026f"/><path d="M98,45a.71.71,0,0,0-.37,0,1.45,1.45,0,1,0,.77,2.79A1.43,1.43,0,0,0,98,45Z" style="fill:#324b8c"/><path d="M90.9,38.9a1.15,1.15,0,0,0,1.58-.46,1.12,1.12,0,0,0-.4-1.53,1.1,1.1,0,0,0-1.58.41A1.19,1.19,0,0,0,90.9,38.9Z" style="fill:#3665a3"/><path d="M97.78,57.68a1.33,1.33,0,0,0-.49-1.84,1.35,1.35,0,0,0-.68-.19,1.35,1.35,0,0,0-.67,2.52A1.37,1.37,0,0,0,97.78,57.68Z" style="fill:#a84796"/><path d="M90.5,62.68a1.11,1.11,0,0,0,1.58.41,1.09,1.09,0,0,0,.4-1.53,1.06,1.06,0,0,0-1-.59,1.26,1.26,0,0,0-.6.13A1.14,1.14,0,0,0,90.5,62.68Z" style="fill:#b3026f"/><path d="M84.47,82.59a2.1,2.1,0,1,0,0-4.19,2.1,2.1,0,0,0,0,4.19Z" style="fill:#e86043"/><path d="M88.38,64.52a1.09,1.09,0,0,0,.73-1.31,1.05,1.05,0,0,0-1-.76,2.18,2.18,0,0,0-.29,0,1,1,0,0,0-.77,1.26A1.09,1.09,0,0,0,88.38,64.52Z" style="fill:#e0485d"/><path d="M90.37,72a1.53,1.53,0,0,0,1.13-1.89A1.58,1.58,0,0,0,90,68.89a1,1,0,0,0-.42.06,1.56,1.56,0,0,0-1.08,1.93A1.52,1.52,0,0,0,90.37,72Z" style="fill:#e0485d"/><path d="M54.44,17.54a2.51,2.51,0,0,0-1.75.76,2.41,2.41,0,1,0,1.75-.76Z" style="fill:#3fbf65"/><path d="M52.69,81.7a2.49,2.49,0,1,0,1.75-4.28,2.51,2.51,0,0,0-1.75.76A2.46,2.46,0,0,0,52.69,81.7Z" style="fill:#febc00"/><path d="M75,39.7a.6.6,0,0,0-.86,0,.59.59,0,0,0,0,.89.55.55,0,0,0,.86,0A.59.59,0,0,0,75,39.7Z" style="fill:#3fbf65"/><path d="M61.85,72.56a1.47,1.47,0,1,0,2.07-2.08,1.47,1.47,0,0,0-1-.46,1.64,1.64,0,0,0-1,.46A1.52,1.52,0,0,0,61.85,72.56Z" style="fill:#febc00"/><path d="M63.92,29.52a1.44,1.44,0,0,0,0-2.08,1.42,1.42,0,0,0-1-.4,1.56,1.56,0,0,0-1,.4,1.52,1.52,0,0,0,0,2.08A1.45,1.45,0,0,0,63.92,29.52Z" style="fill:#3fbf65"/><path d="M58.06,63.94a1.44,1.44,0,0,0-.64.15A1.2,1.2,0,0,0,57,65.8a1.22,1.22,0,0,0,1.71.49,1.27,1.27,0,0,0-.62-2.35Z" style="fill:#ffce0a"/><path d="M48.77,26.77a2.63,2.63,0,0,0-1.13-.31,2.46,2.46,0,0,0-2,1.17,2.31,2.31,0,1,0,4,2.29A2.3,2.3,0,0,0,48.77,26.77Z" style="fill:#8ed346"/><path d="M58.68,33.71a1.78,1.78,0,0,0-.64-.13,1.25,1.25,0,0,0-.62,2.33,1.28,1.28,0,0,0,1.71-.49A1.25,1.25,0,0,0,58.68,33.71Z" style="fill:#8ed346"/><path d="M60.9,85.34a2.7,2.7,0,1,0,3.7-1A2.34,2.34,0,0,0,63.25,84,2.67,2.67,0,0,0,60.9,85.34Z" style="fill:#f99800"/><path d="M47.7,68.86a2.17,2.17,0,0,0-1.13.31,2.29,2.29,0,1,0,3.15.82A2.37,2.37,0,0,0,47.7,68.86Z" style="fill:#ffce0a"/><path d="M44,36.39a2.63,2.63,0,0,0-.55-.09A2.12,2.12,0,0,0,41.38,38a2.15,2.15,0,0,0,1.53,2.66,2.19,2.19,0,0,0,2.69-1.53A2.21,2.21,0,0,0,44,36.39Z" style="fill:#badc30"/><path d="M96.94,50a1.61,1.61,0,1,0,1.59-1.62A1.59,1.59,0,0,0,96.94,50Z" style="fill:#5361a0"/><path d="M72.68,93.77a2.92,2.92,0,1,0,1.53-5.63,2.24,2.24,0,0,0-.76-.12,2.92,2.92,0,0,0-2.79,2.2A2.87,2.87,0,0,0,72.68,93.77Z" style="fill:#f1760d"/><path d="M75,59.39a.51.51,0,0,0-.4-.18.57.57,0,0,0-.46.18.59.59,0,0,0,0,.89.64.64,0,0,0,.86,0A.59.59,0,0,0,75,59.39Z" style="fill:#febc00"/><path d="M67.75,75.52a1.68,1.68,0,1,0,2.93,1.66A1.65,1.65,0,0,0,70,74.92a1.43,1.43,0,0,0-.85-.22A1.71,1.71,0,0,0,67.75,75.52Z" style="fill:#f99800"/><path d="M74.5,67.24a1.24,1.24,0,0,0-.63-.18,1.17,1.17,0,0,0-1.08.63,1.21,1.21,0,0,0,.46,1.71A1.25,1.25,0,0,0,75,69,1.3,1.3,0,0,0,74.5,67.24Z" style="fill:#f99800"/><path d="M66.62,61.43a1,1,0,0,0-.49-2,1.14,1.14,0,0,0-.55.15,1,1,0,0,0-.36,1.43A1,1,0,0,0,66.62,61.43Z" style="fill:#ffce0a"/><path d="M70.26,35.88a1.12,1.12,0,0,0,0-1.62,1.09,1.09,0,0,0-.82-.31,1.17,1.17,0,0,0-.8.31,1.15,1.15,0,0,0,1.62,1.62Z" style="fill:#3fbf65"/><path d="M66.62,38.57a.88.88,0,0,0-.49-.13,1.06,1.06,0,0,0-.91.5,1,1,0,0,0,.36,1.44A1.07,1.07,0,0,0,67,40,1,1,0,0,0,66.62,38.57Z" style="fill:#8ed346"/><path d="M63.23,10.6a2.43,2.43,0,0,0-1.35.36,2.71,2.71,0,1,0,3.7,1A2.61,2.61,0,0,0,63.23,10.6Z" style="fill:#33bb87"/><path d="M68.64,65.74a1.15,1.15,0,1,0,.8-2,1.24,1.24,0,0,0-.8.36A1.14,1.14,0,0,0,68.64,65.74Z" style="fill:#febc00"/><path d="M96.3,5.77a8.17,8.17,0,0,0-.85-.09,3.29,3.29,0,1,0,.85.09Z" style="fill:#5c95c4"/><path d="M107.49,10.18a3.26,3.26,0,0,0-1.75-.49,3.65,3.65,0,0,0-3.12,1.76A3.57,3.57,0,0,0,108.8,15,3.52,3.52,0,0,0,107.49,10.18Z" style="fill:#3665a3"/><path d="M108.4,36.2A2.93,2.93,0,1,0,111,31.83a2.82,2.82,0,0,0-1.48.4A2.87,2.87,0,0,0,108.4,36.2Z" style="fill:#143371"/><path d="M101,21.42a2.66,2.66,0,0,0-1.26-.37,2.52,2.52,0,0,0-1.28,4.68A2.5,2.5,0,1,0,101,21.42Z" style="fill:#3665a3"/><path d="M88.47,29.12a1.56,1.56,0,1,0,3,.8A1.54,1.54,0,0,0,90.35,28a1.44,1.44,0,0,0-.4-.09A1.6,1.6,0,0,0,88.47,29.12Z" style="fill:#5c95c4"/><path d="M114.52,16.24a3.59,3.59,0,0,0-2.66,1.08,3.74,3.74,0,0,0,0,5.35,3.82,3.82,0,0,0,5.32,0,3.87,3.87,0,0,0,0-5.35A3.78,3.78,0,0,0,114.52,16.24Z" style="fill:#143886"/><path d="M90.13,19.92a2.31,2.31,0,1,0,4.46,1.22A2.36,2.36,0,0,0,93,18.3a4,4,0,0,0-.58,0A2.33,2.33,0,0,0,90.13,19.92Z" style="fill:#5c95c4"/><path d="M130,62.19a4.59,4.59,0,0,0-3.24-5.62,4,4,0,0,0-1.22-.19A4.6,4.6,0,1,0,130,62.19Z" style="fill:#776fbb"/><path d="M119.14,74.85a4.19,4.19,0,1,0,4.19-7.25,4.19,4.19,0,0,0-4.19,7.25Z" style="fill:#a84796"/><path d="M126.72,43.43A4.58,4.58,0,0,0,130,37.81a4.66,4.66,0,0,0-4.46-3.39,5.86,5.86,0,0,0-1.17.15,4.59,4.59,0,1,0,2.39,8.86Z" style="fill:#324b8c"/><path d="M121.25,24.6a4.55,4.55,0,0,0-2.11.55,4.19,4.19,0,1,0,4.19,7.25,4.17,4.17,0,0,0,1.53-5.72A4.12,4.12,0,0,0,121.25,24.6Z" style="fill:#143371"/><path d="M69.17,21.94a1.79,1.79,0,0,0-.8.24,1.7,1.7,0,0,0-.64,2.3,1.68,1.68,0,0,0,2.29.58,1.66,1.66,0,0,0,.64-2.26A1.7,1.7,0,0,0,69.17,21.94Z" style="fill:#33bb87"/><path d="M127,45A5,5,0,1,0,132,50,5,5,0,0,0,127,45Z" style="fill:#5361a0"/><path d="M117.18,82.68a3.87,3.87,0,0,0,0-5.35,3.78,3.78,0,0,0-2.66-1.08,3.63,3.63,0,0,0-2.66,1.08,3.74,3.74,0,0,0,0,5.35A3.82,3.82,0,0,0,117.18,82.68Z" style="fill:#bc0477"/><path d="M73.47,6.14a2.37,2.37,0,0,0-.77.09,2.87,2.87,0,0,0-2,3.55,2.85,2.85,0,0,0,3.55,2.08,2.91,2.91,0,0,0-.76-5.72Z" style="fill:#2eaaa0"/><path d="M84.47,4.46a3.14,3.14,0,1,0,3.15,3.12A3.13,3.13,0,0,0,84.47,4.46Z" style="fill:#4d94bd"/><path d="M76.58,18.65a2.33,2.33,0,0,0-.51.11,1.91,1.91,0,0,0-1.35,2.29,2,2,0,0,0,2.35,1.35,1.91,1.91,0,0,0-.49-3.75Z" style="fill:#2eaaa0"/><path d="M88.09,35.46a1.06,1.06,0,0,0-1,.78,1,1,0,0,0,.77,1.26,1,1,0,0,0,1.25-.73,1.1,1.1,0,0,0-.73-1.31Z" style="fill:#5c95c4"/><path d="M80.84,35.69h-.22a.83.83,0,0,0-.58,1,.77.77,0,0,0,1,.59.82.82,0,0,0-.18-1.63Z" style="fill:#2eaaa0"/><path d="M97.65,55a1.45,1.45,0,1,0,.77-2.79,1.34,1.34,0,0,0-1.81,1A1.43,1.43,0,0,0,97.65,55Z" style="fill:#776fbb"/><path d="M79,28.23a.7.7,0,0,0-.37,0,1.34,1.34,0,0,0-.94,1.68,1.36,1.36,0,0,0,1.67.95,1.34,1.34,0,0,0,1-1.68A1.25,1.25,0,0,0,79,28.23Z" style="fill:#2eaaa0"/><path d="M108,26.5a2.57,2.57,0,0,0-1.9-.82,2.8,2.8,0,0,0-1.93.82,2.7,2.7,0,1,0,3.83,0Z" style="fill:#143886"/><path d="M105.74,47.55A2.46,2.46,0,1,0,108.22,50,2.47,2.47,0,0,0,105.74,47.55Z" style="fill:#5361a0"/><path d="M96.61,41.65a1.28,1.28,0,0,0-.67.18,1.33,1.33,0,0,0-.49,1.84,1.3,1.3,0,0,0,1.84.49,1.34,1.34,0,0,0,.49-1.84A1.31,1.31,0,0,0,96.61,41.65Z" style="fill:#143371"/><path d="M101.84,37.59a2,2,0,0,0-.76,2.84,2.08,2.08,0,1,0,1.8-3.11A2.18,2.18,0,0,0,101.84,37.59Z" style="fill:#143371"/><path d="M99.51,33.13a1.87,1.87,0,0,0-1.35,3.2,1.82,1.82,0,0,0,2.66,0,1.87,1.87,0,0,0-1.31-3.2Z" style="fill:#143886"/><path d="M108,73.48a2.67,2.67,0,0,0,0-3.82,2.57,2.57,0,0,0-1.9-.82,2.8,2.8,0,0,0-1.93.82A2.7,2.7,0,0,0,108,73.48Z" style="fill:#bc0477"/><path d="M101.84,62.41a2.08,2.08,0,1,0,2.08-3.6,2,2,0,0,0-1-.28,2.08,2.08,0,0,0-1,3.88Z" style="fill:#a84796"/><path d="M100.82,66.33a1.89,1.89,0,0,0,0-2.66,1.84,1.84,0,0,0-1.31-.55,2,2,0,0,0-1.35.55,1.88,1.88,0,0,0,2.66,2.66Z" style="fill:#bc0477"/><path d="M105.57,46.73a2.3,2.3,0,0,0-.58-4.52c-.16,0-.4,0-.58.06a2.31,2.31,0,0,0-1.62,2.84A2.28,2.28,0,0,0,105.57,46.73Z" style="fill:#324b8c"/><path d="M104.41,57.73a2.3,2.3,0,0,0,1.16-4.46,2.91,2.91,0,0,0-.58-.09,2.26,2.26,0,0,0-2.2,1.71A2.31,2.31,0,0,0,104.41,57.73Z" style="fill:#776fbb"/><path d="M95.89,30.19a1.31,1.31,0,0,0-.82-.21,1.61,1.61,0,0,0-1.42.8,1.65,1.65,0,0,0,.58,2.29,1.7,1.7,0,0,0,2.29-.58A1.67,1.67,0,0,0,95.89,30.19Z" style="fill:#3665a3"/><path d="M114,39a2.46,2.46,0,0,0-.8.09A3.19,3.19,0,1,0,114,39Z" style="fill:#324b8c"/><path d="M107.47,89.8a3.56,3.56,0,0,0-1.8-6.63,3.91,3.91,0,0,0-1.75.51,3.54,3.54,0,1,0,3.55,6.12Z" style="fill:#b3026f"/><path d="M113.46,66.75a2.94,2.94,0,0,0-1.07-4,2.83,2.83,0,0,0-1.44-.4,2.94,2.94,0,0,0-1.5,5.48A3,3,0,0,0,113.46,66.75Z" style="fill:#a84796"/><path d="M111.44,50a3.61,3.61,0,1,0,3.6-3.61A3.57,3.57,0,0,0,111.44,50Z" style="fill:#5361a0"/><path d="M93.52,60.79a1.23,1.23,0,0,0,1.75,0,1.27,1.27,0,0,0-.9-2.17,1.23,1.23,0,0,0-.85.37A1.29,1.29,0,0,0,93.52,60.79Z" style="fill:#bc0477"/><path d="M101,78.58a2.45,2.45,0,0,0,.9-3.42,2.49,2.49,0,0,0-2.17-1.26,2.54,2.54,0,0,0-2.15,3.79A2.48,2.48,0,0,0,101,78.58Z" style="fill:#b3026f"/><path d="M93.52,41a1.26,1.26,0,1,0,1.75-1.8,1.36,1.36,0,0,0-.9-.36,1.22,1.22,0,0,0-.85.36A1.29,1.29,0,0,0,93.52,41Z" style="fill:#143886"/><path d="M113.21,60.92a3.12,3.12,0,0,0,1.62-6,2.84,2.84,0,0,0-.82-.13A3.24,3.24,0,0,0,111,57.09,3.1,3.1,0,0,0,113.21,60.92Z" style="fill:#776fbb"/><path d="M96.3,94.23a3.34,3.34,0,0,0-.85-6.58,5.13,5.13,0,0,0-.86.09,3.36,3.36,0,0,0,1.71,6.49Z" style="fill:#e0485d"/><path d="M84.5,42.63a7.53,7.53,0,1,0,7.32,7.52A7.43,7.43,0,0,0,84.5,42.63Zm0,11.51a4,4,0,1,1,3.77-4A3.88,3.88,0,0,1,84.5,54.14Z" style="fill:#391f58"/><path d="M44.86,43.05H42.14a.63.63,0,0,0-.62.64v13a.62.62,0,0,0,.62.63h2.72a.63.63,0,0,0,.62-.63v-13A.63.63,0,0,0,44.86,43.05Z" style="fill:#391f58"/><path d="M56.73,42.63a6.6,6.6,0,0,0-4.81,2.13l-.49-1.31a.63.63,0,0,0-.56-.4H49.61a.62.62,0,0,0-.62.62V64.16a.61.61,0,0,0,.62.62h2.71a.61.61,0,0,0,.62-.62v-7.1a11.46,11.46,0,0,0,3.77.62c3.81,0,6.9-3.37,6.9-7.54S60.54,42.63,56.73,42.63ZM56,54.14a5.83,5.83,0,0,1-3-.8V48a3.59,3.59,0,0,1,3-1.77,4,4,0,0,1,0,7.94Z" style="fill:#391f58"/><path d="M73.67,42.63a5.45,5.45,0,0,0-4.14,2.13L69,43.45a.63.63,0,0,0-.56-.4H67.22a.62.62,0,0,0-.62.64v13a.62.62,0,0,0,.62.62h2.71a.62.62,0,0,0,.62-.62V47.57a3.47,3.47,0,0,1,4-1.11.61.61,0,0,0,.84-.31L76.34,44C76.6,43.54,76.27,42.63,73.67,42.63Z" style="fill:#391f58"/><path d="M38.55,43.05H35.86a.62.62,0,0,0-.55.4l-2.22,6.91L29.27,43a.79.79,0,0,0-.62-.37h-.28a.76.76,0,0,0-.61.37l-3.83,7.34-2.22-6.91a.61.61,0,0,0-.55-.4H18.47a.43.43,0,0,0-.44.6l4.41,13.64a.6.6,0,0,0,.54.4h.4a.76.76,0,0,0,.62-.36l4.5-8.67L33,57.33a.76.76,0,0,0,.62.36H34a.6.6,0,0,0,.54-.4L39,43.65A.43.43,0,0,0,38.55,43.05Z" style="fill:#391f58"/></svg>